<svg width="1348" height="159" viewBox="0 0 1348 159" fill="none" xmlns="http://www.w3.org/2000/svg">
<path d="M1096.48 74.3635L1088.14 74.4138L1098.95 47.2298L1106.75 47.1828L1096.48 74.3635Z" fill="#434751"/>
<path d="M1115.25 74.2502L1106.91 74.3005L1117.73 47.1165L1125.53 47.0695L1115.25 74.2502Z" fill="#09E639"/>
<path d="M1134.03 74.137L1125.68 74.1872L1136.5 47.0032L1144.3 46.9562L1134.03 74.137Z" fill="white"/>
<path d="M1152.8 74.0237L1144.46 74.074L1155.28 46.8899L1163.07 46.8429L1152.8 74.0237Z" fill="white"/>
<path d="M1171.57 73.9114L1163.23 73.9616L1174.05 46.7776L1181.85 46.7306L1171.57 73.9114Z" fill="white"/>
<path d="M1190.35 73.7981L1182 73.8484L1192.82 46.6643L1200.62 46.6173L1190.35 73.7981Z" fill="white"/>
<path d="M1209.12 73.6848L1200.78 73.7351L1211.6 46.5511L1219.39 46.5041L1209.12 73.6848Z" fill="white"/>
<path d="M1082.74 97.7581L1074.39 97.8083L1085.21 70.6243L1093.01 70.5773L1082.74 97.7581Z" fill="#434751"/>
<path d="M1068.38 121.048L1060.04 121.098L1070.86 93.9143L1078.65 93.8673L1068.38 121.048Z" fill="#434751"/>
<path d="M1052.5 144.338L1044.16 144.388L1054.98 117.204L1062.77 117.157L1052.5 144.338Z" fill="#434751"/>
<path d="M1112.77 52.1877L1104.43 52.238L1115.25 25.054L1123.04 25.007L1112.77 52.1877Z" fill="#434751"/>
<path d="M1131.55 52.0745L1123.2 52.1247L1134.02 24.9407L1141.82 24.8937L1131.55 52.0745Z" fill="#09E639"/>
<path d="M1150.32 51.9612L1141.98 52.0115L1152.79 24.8274L1160.59 24.7804L1150.32 51.9612Z" fill="white"/>
<path d="M1169.09 51.8479L1160.75 51.8982L1171.57 24.7141L1179.36 24.6672L1169.09 51.8479Z" fill="white"/>
<path d="M1187.87 51.7356L1179.52 51.7859L1190.34 24.6018L1198.14 24.5548L1187.87 51.7356Z" fill="white"/>
<path d="M1206.64 51.6223L1198.3 51.6726L1209.12 24.4886L1216.91 24.4416L1206.64 51.6223Z" fill="white"/>
<path d="M1225.41 51.509L1217.07 51.5593L1227.89 24.3753L1235.69 24.3283L1225.41 51.509Z" fill="white"/>
<path d="M1129.06 29.7346L1120.72 29.7849L1131.54 2.60086L1139.34 2.55387L1129.06 29.7346Z" fill="#434751"/>
<path d="M1147.84 29.6213L1139.49 29.6716L1150.31 2.48757L1158.11 2.44059L1147.84 29.6213Z" fill="#09E639"/>
<path d="M1166.61 29.5081L1158.27 29.5583L1169.09 2.37429L1176.88 2.32731L1166.61 29.5081Z" fill="white"/>
<path d="M1185.39 29.3948L1177.04 29.445L1187.86 2.26101L1195.66 2.21403L1185.39 29.3948Z" fill="white"/>
<path d="M1204.16 29.2825L1195.82 29.3327L1206.63 2.14871L1214.43 2.10172L1204.16 29.2825Z" fill="white"/>
<path d="M1222.93 29.1692L1214.59 29.2195L1225.41 2.03543L1233.21 1.98844L1222.93 29.1692Z" fill="white"/>
<path d="M1241.71 29.0559L1233.36 29.1062L1244.18 1.92215L1251.98 1.87516L1241.71 29.0559Z" fill="white"/>
<path d="M155.925 73.3635L164.269 73.4138L153.451 46.2298L145.653 46.1828L155.925 73.3635Z" fill="#434751"/>
<path d="M137.151 73.2502L145.495 73.3005L134.677 46.1165L126.879 46.0695L137.151 73.2502Z" fill="#09E639"/>
<path d="M118.377 73.137L126.721 73.1872L115.903 46.0032L108.105 45.9562L118.377 73.137Z" fill="white"/>
<path d="M99.6034 73.0237L107.947 73.074L97.1291 45.8899L89.3315 45.8429L99.6034 73.0237Z" fill="white"/>
<path d="M80.8295 72.9114L89.1735 72.9616L78.3553 45.7776L70.5576 45.7306L80.8295 72.9114Z" fill="white"/>
<path d="M62.0556 72.7981L70.3995 72.8484L59.5813 45.6643L51.7836 45.6173L62.0556 72.7981Z" fill="white"/>
<path d="M43.2817 72.6848L51.6257 72.7351L40.8074 45.5511L33.0098 45.5041L43.2817 72.6848Z" fill="white"/>
<path d="M169.668 96.7581L178.012 96.8083L167.194 69.6243L159.396 69.5773L169.668 96.7581Z" fill="#434751"/>
<path d="M184.022 120.048L192.366 120.098L181.547 92.9143L173.75 92.8673L184.022 120.048Z" fill="#434751"/>
<path d="M199.902 143.338L208.246 143.388L197.428 116.204L189.63 116.157L199.902 143.338Z" fill="#434751"/>
<path d="M139.633 51.1877L147.977 51.238L137.159 24.054L129.361 24.007L139.633 51.1877Z" fill="#434751"/>
<path d="M120.859 51.0745L129.203 51.1247L118.385 23.9407L110.587 23.8937L120.859 51.0745Z" fill="#09E639"/>
<path d="M102.085 50.9612L110.429 51.0115L99.6108 23.8274L91.8132 23.7804L102.085 50.9612Z" fill="white"/>
<path d="M83.3112 50.8479L91.6552 50.8982L80.837 23.7141L73.0393 23.6672L83.3112 50.8479Z" fill="white"/>
<path d="M64.5374 50.7356L72.8813 50.7859L62.0631 23.6018L54.2655 23.5548L64.5374 50.7356Z" fill="white"/>
<path d="M45.7634 50.6223L54.1073 50.6726L43.2891 23.4886L35.4915 23.4416L45.7634 50.6223Z" fill="white"/>
<path d="M26.9895 50.509L35.3335 50.5593L24.5152 23.3753L16.7176 23.3283L26.9895 50.509Z" fill="white"/>
<path d="M123.341 28.7346L131.685 28.7849L120.866 1.60086L113.069 1.55387L123.341 28.7346Z" fill="#434751"/>
<path d="M104.567 28.6213L112.911 28.6716L102.093 1.48757L94.2949 1.44059L104.567 28.6213Z" fill="#09E639"/>
<path d="M85.7929 28.5081L94.1368 28.5583L83.3186 1.37429L75.521 1.32731L85.7929 28.5081Z" fill="white"/>
<path d="M67.019 28.3948L75.363 28.445L64.5447 1.26101L56.7471 1.21403L67.019 28.3948Z" fill="white"/>
<path d="M48.2451 28.2825L56.5891 28.3327L45.7709 1.14871L37.9732 1.10172L48.2451 28.2825Z" fill="white"/>
<path d="M29.4711 28.1692L37.8151 28.2195L26.9969 1.03543L19.1992 0.988443L29.4711 28.1692Z" fill="white"/>
<path d="M10.6973 28.0559L19.0412 28.1062L8.223 0.922145L0.425372 0.875161L10.6973 28.0559Z" fill="white"/>
<path d="M181 143.888V68.3302H196.112V53.2185H211.223V38.1069H256.558V53.2185H271.67V68.3302H286.781V143.888H256.558V113.665H211.223V143.888H181ZM211.223 98.5534H256.558V68.3302H241.447V53.2185H226.335V68.3302H211.223V98.5534ZM301.893 143.888V38.1069H392.563V53.2185H407.675V83.4418H392.563V98.5534H407.675V128.777H392.563V143.888H301.893ZM332.116 83.4418H377.451V53.2185H332.116V83.4418ZM332.116 128.777H377.451V98.5534H332.116V128.777ZM437.898 143.888V128.777H422.786V53.2185H437.898V38.1069H513.456V53.2185H528.568V128.777H513.456V143.888H437.898ZM453.01 128.777H498.344V53.2185H453.01V128.777ZM558.791 143.888V128.777H543.679V38.1069H573.903V128.777H619.238V38.1069H649.461V128.777H634.349V143.888H558.791ZM709.907 143.888V53.2185H679.684V38.1069H770.354V53.2185H740.131V143.888H709.907ZM854.979 143.888V128.777H839.867V38.1069H870.091V128.777H915.426V38.1069H945.649V128.777H930.537V143.888H854.979ZM975.872 143.888V128.777H960.761V113.665H990.984V128.777H1036.32V98.5534H975.872V83.4418H960.761V53.2185H975.872V38.1069H1051.43V53.2185H1066.54V68.3302H1036.32V53.2185H990.984V83.4418H1051.43V98.5534H1066.54V128.777H1051.43V143.888H975.872Z" fill="#9E187D"/>
<mask id="path-50-outside-1_22_6982" maskUnits="userSpaceOnUse" x="179" y="20" width="892" height="112" fill="black">
<rect fill="white" x="179" y="20" width="892" height="112"/>
<path d="M182 128.888V53.3302H197.112V38.2185H212.223V23.1069H257.558V38.2185H272.67V53.3302H287.781V128.888H257.558V98.6651H212.223V128.888H182ZM212.223 83.5534H257.558V53.3302H242.447V38.2185H227.335V53.3302H212.223V83.5534ZM302.893 128.888V23.1069H393.563V38.2185H408.675V68.4418H393.563V83.5534H408.675V113.777H393.563V128.888H302.893ZM333.116 68.4418H378.451V38.2185H333.116V68.4418ZM333.116 113.777H378.451V83.5534H333.116V113.777ZM438.898 128.888V113.777H423.786V38.2185H438.898V23.1069H514.456V38.2185H529.568V113.777H514.456V128.888H438.898ZM454.01 113.777H499.344V38.2185H454.01V113.777ZM559.791 128.888V113.777H544.679V23.1069H574.903V113.777H620.238V23.1069H650.461V113.777H635.349V128.888H559.791ZM710.907 128.888V38.2185H680.684V23.1069H771.354V38.2185H741.131V128.888H710.907ZM855.979 128.888V113.777H840.867V23.1069H871.091V113.777H916.426V23.1069H946.649V113.777H931.537V128.888H855.979ZM976.872 128.888V113.777H961.761V98.6651H991.984V113.777H1037.32V83.5534H976.872V68.4418H961.761V38.2185H976.872V23.1069H1052.43V38.2185H1067.54V53.3302H1037.32V38.2185H991.984V68.4418H1052.43V83.5534H1067.54V113.777H1052.43V128.888H976.872Z"/>
</mask>
<path d="M182 128.888V53.3302H197.112V38.2185H212.223V23.1069H257.558V38.2185H272.67V53.3302H287.781V128.888H257.558V98.6651H212.223V128.888H182ZM212.223 83.5534H257.558V53.3302H242.447V38.2185H227.335V53.3302H212.223V83.5534ZM302.893 128.888V23.1069H393.563V38.2185H408.675V68.4418H393.563V83.5534H408.675V113.777H393.563V128.888H302.893ZM333.116 68.4418H378.451V38.2185H333.116V68.4418ZM333.116 113.777H378.451V83.5534H333.116V113.777ZM438.898 128.888V113.777H423.786V38.2185H438.898V23.1069H514.456V38.2185H529.568V113.777H514.456V128.888H438.898ZM454.01 113.777H499.344V38.2185H454.01V113.777ZM559.791 128.888V113.777H544.679V23.1069H574.903V113.777H620.238V23.1069H650.461V113.777H635.349V128.888H559.791ZM710.907 128.888V38.2185H680.684V23.1069H771.354V38.2185H741.131V128.888H710.907ZM855.979 128.888V113.777H840.867V23.1069H871.091V113.777H916.426V23.1069H946.649V113.777H931.537V128.888H855.979ZM976.872 128.888V113.777H961.761V98.6651H991.984V113.777H1037.32V83.5534H976.872V68.4418H961.761V38.2185H976.872V23.1069H1052.43V38.2185H1067.54V53.3302H1037.32V38.2185H991.984V68.4418H1052.43V83.5534H1067.54V113.777H1052.43V128.888H976.872Z" fill="white"/>
<path d="M182 128.888H179V131.888H182V128.888ZM182 53.3302V50.3302H179V53.3302H182ZM197.112 53.3302V56.3302H200.112V53.3302H197.112ZM197.112 38.2185V35.2185H194.112V38.2185H197.112ZM212.223 38.2185V41.2185H215.223V38.2185H212.223ZM212.223 23.1069V20.1069H209.223V23.1069H212.223ZM257.558 23.1069H260.558V20.1069H257.558V23.1069ZM257.558 38.2185H254.558V41.2185H257.558V38.2185ZM272.67 38.2185H275.67V35.2185H272.67V38.2185ZM272.67 53.3302H269.67V56.3302H272.67V53.3302ZM287.781 53.3302H290.781V50.3302H287.781V53.3302ZM287.781 128.888V131.888H290.781V128.888H287.781ZM257.558 128.888H254.558V131.888H257.558V128.888ZM257.558 98.6651H260.558V95.6651H257.558V98.6651ZM212.223 98.6651V95.6651H209.223V98.6651H212.223ZM212.223 128.888V131.888H215.223V128.888H212.223ZM212.223 83.5534H209.223V86.5534H212.223V83.5534ZM257.558 83.5534V86.5534H260.558V83.5534H257.558ZM257.558 53.3302H260.558V50.3302H257.558V53.3302ZM242.447 53.3302H239.447V56.3302H242.447V53.3302ZM242.447 38.2185H245.447V35.2185H242.447V38.2185ZM227.335 38.2185V35.2185H224.335V38.2185H227.335ZM227.335 53.3302V56.3302H230.335V53.3302H227.335ZM212.223 53.3302V50.3302H209.223V53.3302H212.223ZM185 128.888V53.3302H179V128.888H185ZM182 56.3302H197.112V50.3302H182V56.3302ZM200.112 53.3302V38.2185H194.112V53.3302H200.112ZM197.112 41.2185H212.223V35.2185H197.112V41.2185ZM215.223 38.2185V23.1069H209.223V38.2185H215.223ZM212.223 26.1069H257.558V20.1069H212.223V26.1069ZM254.558 23.1069V38.2185H260.558V23.1069H254.558ZM257.558 41.2185H272.67V35.2185H257.558V41.2185ZM269.67 38.2185V53.3302H275.67V38.2185H269.67ZM272.67 56.3302H287.781V50.3302H272.67V56.3302ZM284.781 53.3302V128.888H290.781V53.3302H284.781ZM287.781 125.888H257.558V131.888H287.781V125.888ZM260.558 128.888V98.6651H254.558V128.888H260.558ZM257.558 95.6651H212.223V101.665H257.558V95.6651ZM209.223 98.6651V128.888H215.223V98.6651H209.223ZM212.223 125.888H182V131.888H212.223V125.888ZM212.223 86.5534H257.558V80.5534H212.223V86.5534ZM260.558 83.5534V53.3302H254.558V83.5534H260.558ZM257.558 50.3302H242.447V56.3302H257.558V50.3302ZM245.447 53.3302V38.2185H239.447V53.3302H245.447ZM242.447 35.2185H227.335V41.2185H242.447V35.2185ZM224.335 38.2185V53.3302H230.335V38.2185H224.335ZM227.335 50.3302H212.223V56.3302H227.335V50.3302ZM209.223 53.3302V83.5534H215.223V53.3302H209.223ZM302.893 128.888H299.893V131.888H302.893V128.888ZM302.893 23.1069V20.1069H299.893V23.1069H302.893ZM393.563 23.1069H396.563V20.1069H393.563V23.1069ZM393.563 38.2185H390.563V41.2185H393.563V38.2185ZM408.675 38.2185H411.675V35.2185H408.675V38.2185ZM408.675 68.4418V71.4418H411.675V68.4418H408.675ZM393.563 68.4418V65.4418H390.563V68.4418H393.563ZM393.563 83.5534H390.563V86.5534H393.563V83.5534ZM408.675 83.5534H411.675V80.5534H408.675V83.5534ZM408.675 113.777V116.777H411.675V113.777H408.675ZM393.563 113.777V110.777H390.563V113.777H393.563ZM393.563 128.888V131.888H396.563V128.888H393.563ZM333.116 68.4418H330.116V71.4418H333.116V68.4418ZM378.451 68.4418V71.4418H381.451V68.4418H378.451ZM378.451 38.2185H381.451V35.2185H378.451V38.2185ZM333.116 38.2185V35.2185H330.116V38.2185H333.116ZM333.116 113.777H330.116V116.777H333.116V113.777ZM378.451 113.777V116.777H381.451V113.777H378.451ZM378.451 83.5534H381.451V80.5534H378.451V83.5534ZM333.116 83.5534V80.5534H330.116V83.5534H333.116ZM305.893 128.888V23.1069H299.893V128.888H305.893ZM302.893 26.1069H393.563V20.1069H302.893V26.1069ZM390.563 23.1069V38.2185H396.563V23.1069H390.563ZM393.563 41.2185H408.675V35.2185H393.563V41.2185ZM405.675 38.2185V68.4418H411.675V38.2185H405.675ZM408.675 65.4418H393.563V71.4418H408.675V65.4418ZM390.563 68.4418V83.5534H396.563V68.4418H390.563ZM393.563 86.5534H408.675V80.5534H393.563V86.5534ZM405.675 83.5534V113.777H411.675V83.5534H405.675ZM408.675 110.777H393.563V116.777H408.675V110.777ZM390.563 113.777V128.888H396.563V113.777H390.563ZM393.563 125.888H302.893V131.888H393.563V125.888ZM333.116 71.4418H378.451V65.4418H333.116V71.4418ZM381.451 68.4418V38.2185H375.451V68.4418H381.451ZM378.451 35.2185H333.116V41.2185H378.451V35.2185ZM330.116 38.2185V68.4418H336.116V38.2185H330.116ZM333.116 116.777H378.451V110.777H333.116V116.777ZM381.451 113.777V83.5534H375.451V113.777H381.451ZM378.451 80.5534H333.116V86.5534H378.451V80.5534ZM330.116 83.5534V113.777H336.116V83.5534H330.116ZM438.898 128.888H435.898V131.888H438.898V128.888ZM438.898 113.777H441.898V110.777H438.898V113.777ZM423.786 113.777H420.786V116.777H423.786V113.777ZM423.786 38.2185V35.2185H420.786V38.2185H423.786ZM438.898 38.2185V41.2185H441.898V38.2185H438.898ZM438.898 23.1069V20.1069H435.898V23.1069H438.898ZM514.456 23.1069H517.456V20.1069H514.456V23.1069ZM514.456 38.2185H511.456V41.2185H514.456V38.2185ZM529.568 38.2185H532.568V35.2185H529.568V38.2185ZM529.568 113.777V116.777H532.568V113.777H529.568ZM514.456 113.777V110.777H511.456V113.777H514.456ZM514.456 128.888V131.888H517.456V128.888H514.456ZM454.01 113.777H451.01V116.777H454.01V113.777ZM499.344 113.777V116.777H502.344V113.777H499.344ZM499.344 38.2185H502.344V35.2185H499.344V38.2185ZM454.01 38.2185V35.2185H451.01V38.2185H454.01ZM441.898 128.888V113.777H435.898V128.888H441.898ZM438.898 110.777H423.786V116.777H438.898V110.777ZM426.786 113.777V38.2185H420.786V113.777H426.786ZM423.786 41.2185H438.898V35.2185H423.786V41.2185ZM441.898 38.2185V23.1069H435.898V38.2185H441.898ZM438.898 26.1069H514.456V20.1069H438.898V26.1069ZM511.456 23.1069V38.2185H517.456V23.1069H511.456ZM514.456 41.2185H529.568V35.2185H514.456V41.2185ZM526.568 38.2185V113.777H532.568V38.2185H526.568ZM529.568 110.777H514.456V116.777H529.568V110.777ZM511.456 113.777V128.888H517.456V113.777H511.456ZM514.456 125.888H438.898V131.888H514.456V125.888ZM454.01 116.777H499.344V110.777H454.01V116.777ZM502.344 113.777V38.2185H496.344V113.777H502.344ZM499.344 35.2185H454.01V41.2185H499.344V35.2185ZM451.01 38.2185V113.777H457.01V38.2185H451.01ZM559.791 128.888H556.791V131.888H559.791V128.888ZM559.791 113.777H562.791V110.777H559.791V113.777ZM544.679 113.777H541.679V116.777H544.679V113.777ZM544.679 23.1069V20.1069H541.679V23.1069H544.679ZM574.903 23.1069H577.903V20.1069H574.903V23.1069ZM574.903 113.777H571.903V116.777H574.903V113.777ZM620.238 113.777V116.777H623.238V113.777H620.238ZM620.238 23.1069V20.1069H617.238V23.1069H620.238ZM650.461 23.1069H653.461V20.1069H650.461V23.1069ZM650.461 113.777V116.777H653.461V113.777H650.461ZM635.349 113.777V110.777H632.349V113.777H635.349ZM635.349 128.888V131.888H638.349V128.888H635.349ZM562.791 128.888V113.777H556.791V128.888H562.791ZM559.791 110.777H544.679V116.777H559.791V110.777ZM547.679 113.777V23.1069H541.679V113.777H547.679ZM544.679 26.1069H574.903V20.1069H544.679V26.1069ZM571.903 23.1069V113.777H577.903V23.1069H571.903ZM574.903 116.777H620.238V110.777H574.903V116.777ZM623.238 113.777V23.1069H617.238V113.777H623.238ZM620.238 26.1069H650.461V20.1069H620.238V26.1069ZM647.461 23.1069V113.777H653.461V23.1069H647.461ZM650.461 110.777H635.349V116.777H650.461V110.777ZM632.349 113.777V128.888H638.349V113.777H632.349ZM635.349 125.888H559.791V131.888H635.349V125.888ZM710.907 128.888H707.907V131.888H710.907V128.888ZM710.907 38.2185H713.907V35.2185H710.907V38.2185ZM680.684 38.2185H677.684V41.2185H680.684V38.2185ZM680.684 23.1069V20.1069H677.684V23.1069H680.684ZM771.354 23.1069H774.354V20.1069H771.354V23.1069ZM771.354 38.2185V41.2185H774.354V38.2185H771.354ZM741.131 38.2185V35.2185H738.131V38.2185H741.131ZM741.131 128.888V131.888H744.131V128.888H741.131ZM713.907 128.888V38.2185H707.907V128.888H713.907ZM710.907 35.2185H680.684V41.2185H710.907V35.2185ZM683.684 38.2185V23.1069H677.684V38.2185H683.684ZM680.684 26.1069H771.354V20.1069H680.684V26.1069ZM768.354 23.1069V38.2185H774.354V23.1069H768.354ZM771.354 35.2185H741.131V41.2185H771.354V35.2185ZM738.131 38.2185V128.888H744.131V38.2185H738.131ZM741.131 125.888H710.907V131.888H741.131V125.888ZM855.979 128.888H852.979V131.888H855.979V128.888ZM855.979 113.777H858.979V110.777H855.979V113.777ZM840.867 113.777H837.867V116.777H840.867V113.777ZM840.867 23.1069V20.1069H837.867V23.1069H840.867ZM871.091 23.1069H874.091V20.1069H871.091V23.1069ZM871.091 113.777H868.091V116.777H871.091V113.777ZM916.426 113.777V116.777H919.426V113.777H916.426ZM916.426 23.1069V20.1069H913.426V23.1069H916.426ZM946.649 23.1069H949.649V20.1069H946.649V23.1069ZM946.649 113.777V116.777H949.649V113.777H946.649ZM931.537 113.777V110.777H928.537V113.777H931.537ZM931.537 128.888V131.888H934.537V128.888H931.537ZM858.979 128.888V113.777H852.979V128.888H858.979ZM855.979 110.777H840.867V116.777H855.979V110.777ZM843.867 113.777V23.1069H837.867V113.777H843.867ZM840.867 26.1069H871.091V20.1069H840.867V26.1069ZM868.091 23.1069V113.777H874.091V23.1069H868.091ZM871.091 116.777H916.426V110.777H871.091V116.777ZM919.426 113.777V23.1069H913.426V113.777H919.426ZM916.426 26.1069H946.649V20.1069H916.426V26.1069ZM943.649 23.1069V113.777H949.649V23.1069H943.649ZM946.649 110.777H931.537V116.777H946.649V110.777ZM928.537 113.777V128.888H934.537V113.777H928.537ZM931.537 125.888H855.979V131.888H931.537V125.888ZM976.872 128.888H973.872V131.888H976.872V128.888ZM976.872 113.777H979.872V110.777H976.872V113.777ZM961.761 113.777H958.761V116.777H961.761V113.777ZM961.761 98.6651V95.6651H958.761V98.6651H961.761ZM991.984 98.6651H994.984V95.6651H991.984V98.6651ZM991.984 113.777H988.984V116.777H991.984V113.777ZM1037.32 113.777V116.777H1040.32V113.777H1037.32ZM1037.32 83.5534H1040.32V80.5534H1037.32V83.5534ZM976.872 83.5534H973.872V86.5534H976.872V83.5534ZM976.872 68.4418H979.872V65.4418H976.872V68.4418ZM961.761 68.4418H958.761V71.4418H961.761V68.4418ZM961.761 38.2185V35.2185H958.761V38.2185H961.761ZM976.872 38.2185V41.2185H979.872V38.2185H976.872ZM976.872 23.1069V20.1069H973.872V23.1069H976.872ZM1052.43 23.1069H1055.43V20.1069H1052.43V23.1069ZM1052.43 38.2185H1049.43V41.2185H1052.43V38.2185ZM1067.54 38.2185H1070.54V35.2185H1067.54V38.2185ZM1067.54 53.3302V56.3302H1070.54V53.3302H1067.54ZM1037.32 53.3302H1034.32V56.3302H1037.32V53.3302ZM1037.32 38.2185H1040.32V35.2185H1037.32V38.2185ZM991.984 38.2185V35.2185H988.984V38.2185H991.984ZM991.984 68.4418H988.984V71.4418H991.984V68.4418ZM1052.43 68.4418H1055.43V65.4418H1052.43V68.4418ZM1052.43 83.5534H1049.43V86.5534H1052.43V83.5534ZM1067.54 83.5534H1070.54V80.5534H1067.54V83.5534ZM1067.54 113.777V116.777H1070.54V113.777H1067.54ZM1052.43 113.777V110.777H1049.43V113.777H1052.43ZM1052.43 128.888V131.888H1055.43V128.888H1052.43ZM979.872 128.888V113.777H973.872V128.888H979.872ZM976.872 110.777H961.761V116.777H976.872V110.777ZM964.761 113.777V98.6651H958.761V113.777H964.761ZM961.761 101.665H991.984V95.6651H961.761V101.665ZM988.984 98.6651V113.777H994.984V98.6651H988.984ZM991.984 116.777H1037.32V110.777H991.984V116.777ZM1040.32 113.777V83.5534H1034.32V113.777H1040.32ZM1037.32 80.5534H976.872V86.5534H1037.32V80.5534ZM979.872 83.5534V68.4418H973.872V83.5534H979.872ZM976.872 65.4418H961.761V71.4418H976.872V65.4418ZM964.761 68.4418V38.2185H958.761V68.4418H964.761ZM961.761 41.2185H976.872V35.2185H961.761V41.2185ZM979.872 38.2185V23.1069H973.872V38.2185H979.872ZM976.872 26.1069H1052.43V20.1069H976.872V26.1069ZM1049.43 23.1069V38.2185H1055.43V23.1069H1049.43ZM1052.43 41.2185H1067.54V35.2185H1052.43V41.2185ZM1064.54 38.2185V53.3302H1070.54V38.2185H1064.54ZM1067.54 50.3302H1037.32V56.3302H1067.54V50.3302ZM1040.32 53.3302V38.2185H1034.32V53.3302H1040.32ZM1037.32 35.2185H991.984V41.2185H1037.32V35.2185ZM988.984 38.2185V68.4418H994.984V38.2185H988.984ZM991.984 71.4418H1052.43V65.4418H991.984V71.4418ZM1049.43 68.4418V83.5534H1055.43V68.4418H1049.43ZM1052.43 86.5534H1067.54V80.5534H1052.43V86.5534ZM1064.54 83.5534V113.777H1070.54V83.5534H1064.54ZM1067.54 110.777H1052.43V116.777H1067.54V110.777ZM1049.43 113.777V128.888H1055.43V113.777H1049.43ZM1052.43 125.888H976.872V131.888H1052.43V125.888Z" fill="#4763AB" mask="url(#path-50-outside-1_22_6982)"/>
</svg>
