<svg width="1398" height="107" viewBox="0 0 1398 107" fill="none" xmlns="http://www.w3.org/2000/svg">
<path d="M138.146 95.4272V83.8544H126.573V72.2816H115V37.5633H126.573V25.9905H138.146V14.4177H196.009V25.9905H149.718V37.5633H138.146V72.2816H149.718V83.8544H172.864V60.7089H161.291V49.1361H196.009V95.4272H138.146ZM207.582 95.4272V37.5633H219.155V25.9905H230.728V14.4177H265.446V25.9905H277.019V37.5633H288.592V95.4272H265.446V72.2816H230.728V95.4272H207.582ZM230.728 60.7089H265.446V37.5633H253.873V25.9905H242.301V37.5633H230.728V60.7089ZM300.165 95.4272V14.4177H323.31V25.9905H334.883V37.5633H346.456V25.9905H358.028V14.4177H381.174V95.4272H358.028V49.1361H346.456V72.2816H334.883V49.1361H323.31V95.4272H300.165ZM392.747 95.4272V14.4177H473.756V25.9905H415.892V49.1361H462.184V60.7089H415.892V83.8544H473.756V95.4272H392.747ZM537.175 95.4272V14.4177H606.612V25.9905H618.185V60.7089H606.612V72.2816H560.321V95.4272H537.175ZM560.321 60.7089H595.039V25.9905H560.321V60.7089ZM641.33 95.4272V14.4177H664.476V83.8544H710.767V95.4272H641.33ZM722.34 95.4272V37.5633H733.913V25.9905H745.485V14.4177H780.204V25.9905H791.776V37.5633H803.349V95.4272H780.204V72.2816H745.485V95.4272H722.34ZM745.485 60.7089H780.204V37.5633H768.631V25.9905H757.058V37.5633H745.485V60.7089ZM849.64 95.4272V60.7089H838.068V49.1361H826.495V14.4177H849.64V49.1361H872.786V14.4177H895.931V49.1361H884.359V60.7089H872.786V95.4272H849.64Z" fill="#E8D440"/>
<mask id="path-2-outside-1_24_6987" maskUnits="userSpaceOnUse" x="111" y="-3" width="788" height="88" fill="black">
<rect fill="white" x="111" y="-3" width="788" height="88"/>
<path d="M138.146 81.4272V69.8544H126.573V58.2816H115V23.5633H126.573V11.9905H138.146V0.417725H196.009V11.9905H149.718V23.5633H138.146V58.2816H149.718V69.8544H172.864V46.7089H161.291V35.1361H196.009V81.4272H138.146ZM207.582 81.4272V23.5633H219.155V11.9905H230.728V0.417725H265.446V11.9905H277.019V23.5633H288.592V81.4272H265.446V58.2816H230.728V81.4272H207.582ZM230.728 46.7089H265.446V23.5633H253.873V11.9905H242.301V23.5633H230.728V46.7089ZM300.165 81.4272V0.417725H323.31V11.9905H334.883V23.5633H346.456V11.9905H358.028V0.417725H381.174V81.4272H358.028V35.1361H346.456V58.2816H334.883V35.1361H323.31V81.4272H300.165ZM392.747 81.4272V0.417725H473.756V11.9905H415.892V35.1361H462.184V46.7089H415.892V69.8544H473.756V81.4272H392.747ZM537.175 81.4272V0.417725H606.612V11.9905H618.185V46.7089H606.612V58.2816H560.321V81.4272H537.175ZM560.321 46.7089H595.039V11.9905H560.321V46.7089ZM641.33 81.4272V0.417725H664.476V69.8544H710.767V81.4272H641.33ZM722.34 81.4272V23.5633H733.913V11.9905H745.485V0.417725H780.204V11.9905H791.776V23.5633H803.349V81.4272H780.204V58.2816H745.485V81.4272H722.34ZM745.485 46.7089H780.204V23.5633H768.631V11.9905H757.058V23.5633H745.485V46.7089ZM849.64 81.4272V46.7089H838.068V35.1361H826.495V0.417725H849.64V35.1361H872.786V0.417725H895.931V35.1361H884.359V46.7089H872.786V81.4272H849.64Z"/>
</mask>
<path d="M138.146 81.4272V69.8544H126.573V58.2816H115V23.5633H126.573V11.9905H138.146V0.417725H196.009V11.9905H149.718V23.5633H138.146V58.2816H149.718V69.8544H172.864V46.7089H161.291V35.1361H196.009V81.4272H138.146ZM207.582 81.4272V23.5633H219.155V11.9905H230.728V0.417725H265.446V11.9905H277.019V23.5633H288.592V81.4272H265.446V58.2816H230.728V81.4272H207.582ZM230.728 46.7089H265.446V23.5633H253.873V11.9905H242.301V23.5633H230.728V46.7089ZM300.165 81.4272V0.417725H323.31V11.9905H334.883V23.5633H346.456V11.9905H358.028V0.417725H381.174V81.4272H358.028V35.1361H346.456V58.2816H334.883V35.1361H323.31V81.4272H300.165ZM392.747 81.4272V0.417725H473.756V11.9905H415.892V35.1361H462.184V46.7089H415.892V69.8544H473.756V81.4272H392.747ZM537.175 81.4272V0.417725H606.612V11.9905H618.185V46.7089H606.612V58.2816H560.321V81.4272H537.175ZM560.321 46.7089H595.039V11.9905H560.321V46.7089ZM641.33 81.4272V0.417725H664.476V69.8544H710.767V81.4272H641.33ZM722.34 81.4272V23.5633H733.913V11.9905H745.485V0.417725H780.204V11.9905H791.776V23.5633H803.349V81.4272H780.204V58.2816H745.485V81.4272H722.34ZM745.485 46.7089H780.204V23.5633H768.631V11.9905H757.058V23.5633H745.485V46.7089ZM849.64 81.4272V46.7089H838.068V35.1361H826.495V0.417725H849.64V35.1361H872.786V0.417725H895.931V35.1361H884.359V46.7089H872.786V81.4272H849.64Z" fill="white"/>
<path d="M138.146 81.4272H135.082V84.4905H138.146V81.4272ZM138.146 69.8544H141.209V66.7912H138.146V69.8544ZM126.573 69.8544H123.51V72.9177H126.573V69.8544ZM126.573 58.2816H129.636V55.2184H126.573V58.2816ZM115 58.2816H111.937V61.3449H115V58.2816ZM115 23.5633V20.5H111.937V23.5633H115ZM126.573 23.5633V26.6266H129.636V23.5633H126.573ZM126.573 11.9905V8.92723H123.51V11.9905H126.573ZM138.146 11.9905V15.0538H141.209V11.9905H138.146ZM138.146 0.417725V-2.64555H135.082V0.417725H138.146ZM196.009 0.417725H199.073V-2.64555H196.009V0.417725ZM196.009 11.9905V15.0538H199.073V11.9905H196.009ZM149.718 11.9905V8.92723H146.655V11.9905H149.718ZM149.718 23.5633V26.6266H152.782V23.5633H149.718ZM138.146 23.5633V20.5H135.082V23.5633H138.146ZM138.146 58.2816H135.082V61.3449H138.146V58.2816ZM149.718 58.2816H152.782V55.2184H149.718V58.2816ZM149.718 69.8544H146.655V72.9177H149.718V69.8544ZM172.864 69.8544V72.9177H175.927V69.8544H172.864ZM172.864 46.7089H175.927V43.6456H172.864V46.7089ZM161.291 46.7089H158.228V49.7721H161.291V46.7089ZM161.291 35.1361V32.0728H158.228V35.1361H161.291ZM196.009 35.1361H199.073V32.0728H196.009V35.1361ZM196.009 81.4272V84.4905H199.073V81.4272H196.009ZM141.209 81.4272V69.8544H135.082V81.4272H141.209ZM138.146 66.7912H126.573V72.9177H138.146V66.7912ZM129.636 69.8544V58.2816H123.51V69.8544H129.636ZM126.573 55.2184H115V61.3449H126.573V55.2184ZM118.063 58.2816V23.5633H111.937V58.2816H118.063ZM115 26.6266H126.573V20.5H115V26.6266ZM129.636 23.5633V11.9905H123.51V23.5633H129.636ZM126.573 15.0538H138.146V8.92723H126.573V15.0538ZM141.209 11.9905V0.417725H135.082V11.9905H141.209ZM138.146 3.481H196.009V-2.64555H138.146V3.481ZM192.946 0.417725V11.9905H199.073V0.417725H192.946ZM196.009 8.92723H149.718V15.0538H196.009V8.92723ZM146.655 11.9905V23.5633H152.782V11.9905H146.655ZM149.718 20.5H138.146V26.6266H149.718V20.5ZM135.082 23.5633V58.2816H141.209V23.5633H135.082ZM138.146 61.3449H149.718V55.2184H138.146V61.3449ZM146.655 58.2816V69.8544H152.782V58.2816H146.655ZM149.718 72.9177H172.864V66.7912H149.718V72.9177ZM175.927 69.8544V46.7089H169.801V69.8544H175.927ZM172.864 43.6456H161.291V49.7721H172.864V43.6456ZM164.354 46.7089V35.1361H158.228V46.7089H164.354ZM161.291 38.1994H196.009V32.0728H161.291V38.1994ZM192.946 35.1361V81.4272H199.073V35.1361H192.946ZM196.009 78.3639H138.146V84.4905H196.009V78.3639ZM207.582 81.4272H204.519V84.4905H207.582V81.4272ZM207.582 23.5633V20.5H204.519V23.5633H207.582ZM219.155 23.5633V26.6266H222.218V23.5633H219.155ZM219.155 11.9905V8.92723H216.092V11.9905H219.155ZM230.728 11.9905V15.0538H233.791V11.9905H230.728ZM230.728 0.417725V-2.64555H227.665V0.417725H230.728ZM265.446 0.417725H268.509V-2.64555H265.446V0.417725ZM265.446 11.9905H262.383V15.0538H265.446V11.9905ZM277.019 11.9905H280.082V8.92723H277.019V11.9905ZM277.019 23.5633H273.956V26.6266H277.019V23.5633ZM288.592 23.5633H291.655V20.5H288.592V23.5633ZM288.592 81.4272V84.4905H291.655V81.4272H288.592ZM265.446 81.4272H262.383V84.4905H265.446V81.4272ZM265.446 58.2816H268.509V55.2184H265.446V58.2816ZM230.728 58.2816V55.2184H227.665V58.2816H230.728ZM230.728 81.4272V84.4905H233.791V81.4272H230.728ZM230.728 46.7089H227.665V49.7721H230.728V46.7089ZM265.446 46.7089V49.7721H268.509V46.7089H265.446ZM265.446 23.5633H268.509V20.5H265.446V23.5633ZM253.873 23.5633H250.81V26.6266H253.873V23.5633ZM253.873 11.9905H256.937V8.92723H253.873V11.9905ZM242.301 11.9905V8.92723H239.237V11.9905H242.301ZM242.301 23.5633V26.6266H245.364V23.5633H242.301ZM230.728 23.5633V20.5H227.665V23.5633H230.728ZM210.646 81.4272V23.5633H204.519V81.4272H210.646ZM207.582 26.6266H219.155V20.5H207.582V26.6266ZM222.218 23.5633V11.9905H216.092V23.5633H222.218ZM219.155 15.0538H230.728V8.92723H219.155V15.0538ZM233.791 11.9905V0.417725H227.665V11.9905H233.791ZM230.728 3.481H265.446V-2.64555H230.728V3.481ZM262.383 0.417725V11.9905H268.509V0.417725H262.383ZM265.446 15.0538H277.019V8.92723H265.446V15.0538ZM273.956 11.9905V23.5633H280.082V11.9905H273.956ZM277.019 26.6266H288.592V20.5H277.019V26.6266ZM285.528 23.5633V81.4272H291.655V23.5633H285.528ZM288.592 78.3639H265.446V84.4905H288.592V78.3639ZM268.509 81.4272V58.2816H262.383V81.4272H268.509ZM265.446 55.2184H230.728V61.3449H265.446V55.2184ZM227.665 58.2816V81.4272H233.791V58.2816H227.665ZM230.728 78.3639H207.582V84.4905H230.728V78.3639ZM230.728 49.7721H265.446V43.6456H230.728V49.7721ZM268.509 46.7089V23.5633H262.383V46.7089H268.509ZM265.446 20.5H253.873V26.6266H265.446V20.5ZM256.937 23.5633V11.9905H250.81V23.5633H256.937ZM253.873 8.92723H242.301V15.0538H253.873V8.92723ZM239.237 11.9905V23.5633H245.364V11.9905H239.237ZM242.301 20.5H230.728V26.6266H242.301V20.5ZM227.665 23.5633V46.7089H233.791V23.5633H227.665ZM300.165 81.4272H297.101V84.4905H300.165V81.4272ZM300.165 0.417725V-2.64555H297.101V0.417725H300.165ZM323.31 0.417725H326.373V-2.64555H323.31V0.417725ZM323.31 11.9905H320.247V15.0538H323.31V11.9905ZM334.883 11.9905H337.946V8.92723H334.883V11.9905ZM334.883 23.5633H331.82V26.6266H334.883V23.5633ZM346.456 23.5633V26.6266H349.519V23.5633H346.456ZM346.456 11.9905V8.92723H343.392V11.9905H346.456ZM358.028 11.9905V15.0538H361.092V11.9905H358.028ZM358.028 0.417725V-2.64555H354.965V0.417725H358.028ZM381.174 0.417725H384.237V-2.64555H381.174V0.417725ZM381.174 81.4272V84.4905H384.237V81.4272H381.174ZM358.028 81.4272H354.965V84.4905H358.028V81.4272ZM358.028 35.1361H361.092V32.0728H358.028V35.1361ZM346.456 35.1361V32.0728H343.392V35.1361H346.456ZM346.456 58.2816V61.3449H349.519V58.2816H346.456ZM334.883 58.2816H331.82V61.3449H334.883V58.2816ZM334.883 35.1361H337.946V32.0728H334.883V35.1361ZM323.31 35.1361V32.0728H320.247V35.1361H323.31ZM323.31 81.4272V84.4905H326.373V81.4272H323.31ZM303.228 81.4272V0.417725H297.101V81.4272H303.228ZM300.165 3.481H323.31V-2.64555H300.165V3.481ZM320.247 0.417725V11.9905H326.373V0.417725H320.247ZM323.31 15.0538H334.883V8.92723H323.31V15.0538ZM331.82 11.9905V23.5633H337.946V11.9905H331.82ZM334.883 26.6266H346.456V20.5H334.883V26.6266ZM349.519 23.5633V11.9905H343.392V23.5633H349.519ZM346.456 15.0538H358.028V8.92723H346.456V15.0538ZM361.092 11.9905V0.417725H354.965V11.9905H361.092ZM358.028 3.481H381.174V-2.64555H358.028V3.481ZM378.111 0.417725V81.4272H384.237V0.417725H378.111ZM381.174 78.3639H358.028V84.4905H381.174V78.3639ZM361.092 81.4272V35.1361H354.965V81.4272H361.092ZM358.028 32.0728H346.456V38.1994H358.028V32.0728ZM343.392 35.1361V58.2816H349.519V35.1361H343.392ZM346.456 55.2184H334.883V61.3449H346.456V55.2184ZM337.946 58.2816V35.1361H331.82V58.2816H337.946ZM334.883 32.0728H323.31V38.1994H334.883V32.0728ZM320.247 35.1361V81.4272H326.373V35.1361H320.247ZM323.31 78.3639H300.165V84.4905H323.31V78.3639ZM392.747 81.4272H389.684V84.4905H392.747V81.4272ZM392.747 0.417725V-2.64555H389.684V0.417725H392.747ZM473.756 0.417725H476.82V-2.64555H473.756V0.417725ZM473.756 11.9905V15.0538H476.82V11.9905H473.756ZM415.892 11.9905V8.92723H412.829V11.9905H415.892ZM415.892 35.1361H412.829V38.1994H415.892V35.1361ZM462.184 35.1361H465.247V32.0728H462.184V35.1361ZM462.184 46.7089V49.7721H465.247V46.7089H462.184ZM415.892 46.7089V43.6456H412.829V46.7089H415.892ZM415.892 69.8544H412.829V72.9177H415.892V69.8544ZM473.756 69.8544H476.82V66.7912H473.756V69.8544ZM473.756 81.4272V84.4905H476.82V81.4272H473.756ZM395.81 81.4272V0.417725H389.684V81.4272H395.81ZM392.747 3.481H473.756V-2.64555H392.747V3.481ZM470.693 0.417725V11.9905H476.82V0.417725H470.693ZM473.756 8.92723H415.892V15.0538H473.756V8.92723ZM412.829 11.9905V35.1361H418.956V11.9905H412.829ZM415.892 38.1994H462.184V32.0728H415.892V38.1994ZM459.12 35.1361V46.7089H465.247V35.1361H459.12ZM462.184 43.6456H415.892V49.7721H462.184V43.6456ZM412.829 46.7089V69.8544H418.956V46.7089H412.829ZM415.892 72.9177H473.756V66.7912H415.892V72.9177ZM470.693 69.8544V81.4272H476.82V69.8544H470.693ZM473.756 78.3639H392.747V84.4905H473.756V78.3639ZM537.175 81.4272H534.112V84.4905H537.175V81.4272ZM537.175 0.417725V-2.64555H534.112V0.417725H537.175ZM606.612 0.417725H609.675V-2.64555H606.612V0.417725ZM606.612 11.9905H603.549V15.0538H606.612V11.9905ZM618.185 11.9905H621.248V8.92723H618.185V11.9905ZM618.185 46.7089V49.7721H621.248V46.7089H618.185ZM606.612 46.7089V43.6456H603.549V46.7089H606.612ZM606.612 58.2816V61.3449H609.675V58.2816H606.612ZM560.321 58.2816V55.2184H557.257V58.2816H560.321ZM560.321 81.4272V84.4905H563.384V81.4272H560.321ZM560.321 46.7089H557.257V49.7721H560.321V46.7089ZM595.039 46.7089V49.7721H598.102V46.7089H595.039ZM595.039 11.9905H598.102V8.92723H595.039V11.9905ZM560.321 11.9905V8.92723H557.257V11.9905H560.321ZM540.238 81.4272V0.417725H534.112V81.4272H540.238ZM537.175 3.481H606.612V-2.64555H537.175V3.481ZM603.549 0.417725V11.9905H609.675V0.417725H603.549ZM606.612 15.0538H618.185V8.92723H606.612V15.0538ZM615.121 11.9905V46.7089H621.248V11.9905H615.121ZM618.185 43.6456H606.612V49.7721H618.185V43.6456ZM603.549 46.7089V58.2816H609.675V46.7089H603.549ZM606.612 55.2184H560.321V61.3449H606.612V55.2184ZM557.257 58.2816V81.4272H563.384V58.2816H557.257ZM560.321 78.3639H537.175V84.4905H560.321V78.3639ZM560.321 49.7721H595.039V43.6456H560.321V49.7721ZM598.102 46.7089V11.9905H591.976V46.7089H598.102ZM595.039 8.92723H560.321V15.0538H595.039V8.92723ZM557.257 11.9905V46.7089H563.384V11.9905H557.257ZM641.33 81.4272H638.267V84.4905H641.33V81.4272ZM641.33 0.417725V-2.64555H638.267V0.417725H641.33ZM664.476 0.417725H667.539V-2.64555H664.476V0.417725ZM664.476 69.8544H661.413V72.9177H664.476V69.8544ZM710.767 69.8544H713.83V66.7912H710.767V69.8544ZM710.767 81.4272V84.4905H713.83V81.4272H710.767ZM644.394 81.4272V0.417725H638.267V81.4272H644.394ZM641.33 3.481H664.476V-2.64555H641.33V3.481ZM661.413 0.417725V69.8544H667.539V0.417725H661.413ZM664.476 72.9177H710.767V66.7912H664.476V72.9177ZM707.704 69.8544V81.4272H713.83V69.8544H707.704ZM710.767 78.3639H641.33V84.4905H710.767V78.3639ZM722.34 81.4272H719.276V84.4905H722.34V81.4272ZM722.34 23.5633V20.5H719.276V23.5633H722.34ZM733.913 23.5633V26.6266H736.976V23.5633H733.913ZM733.913 11.9905V8.92723H730.849V11.9905H733.913ZM745.485 11.9905V15.0538H748.549V11.9905H745.485ZM745.485 0.417725V-2.64555H742.422V0.417725H745.485ZM780.204 0.417725H783.267V-2.64555H780.204V0.417725ZM780.204 11.9905H777.14V15.0538H780.204V11.9905ZM791.776 11.9905H794.84V8.92723H791.776V11.9905ZM791.776 23.5633H788.713V26.6266H791.776V23.5633ZM803.349 23.5633H806.412V20.5H803.349V23.5633ZM803.349 81.4272V84.4905H806.412V81.4272H803.349ZM780.204 81.4272H777.14V84.4905H780.204V81.4272ZM780.204 58.2816H783.267V55.2184H780.204V58.2816ZM745.485 58.2816V55.2184H742.422V58.2816H745.485ZM745.485 81.4272V84.4905H748.549V81.4272H745.485ZM745.485 46.7089H742.422V49.7721H745.485V46.7089ZM780.204 46.7089V49.7721H783.267V46.7089H780.204ZM780.204 23.5633H783.267V20.5H780.204V23.5633ZM768.631 23.5633H765.568V26.6266H768.631V23.5633ZM768.631 11.9905H771.694V8.92723H768.631V11.9905ZM757.058 11.9905V8.92723H753.995V11.9905H757.058ZM757.058 23.5633V26.6266H760.121V23.5633H757.058ZM745.485 23.5633V20.5H742.422V23.5633H745.485ZM725.403 81.4272V23.5633H719.276V81.4272H725.403ZM722.34 26.6266H733.913V20.5H722.34V26.6266ZM736.976 23.5633V11.9905H730.849V23.5633H736.976ZM733.913 15.0538H745.485V8.92723H733.913V15.0538ZM748.549 11.9905V0.417725H742.422V11.9905H748.549ZM745.485 3.481H780.204V-2.64555H745.485V3.481ZM777.14 0.417725V11.9905H783.267V0.417725H777.14ZM780.204 15.0538H791.776V8.92723H780.204V15.0538ZM788.713 11.9905V23.5633H794.84V11.9905H788.713ZM791.776 26.6266H803.349V20.5H791.776V26.6266ZM800.286 23.5633V81.4272H806.412V23.5633H800.286ZM803.349 78.3639H780.204V84.4905H803.349V78.3639ZM783.267 81.4272V58.2816H777.14V81.4272H783.267ZM780.204 55.2184H745.485V61.3449H780.204V55.2184ZM742.422 58.2816V81.4272H748.549V58.2816H742.422ZM745.485 78.3639H722.34V84.4905H745.485V78.3639ZM745.485 49.7721H780.204V43.6456H745.485V49.7721ZM783.267 46.7089V23.5633H777.14V46.7089H783.267ZM780.204 20.5H768.631V26.6266H780.204V20.5ZM771.694 23.5633V11.9905H765.568V23.5633H771.694ZM768.631 8.92723H757.058V15.0538H768.631V8.92723ZM753.995 11.9905V23.5633H760.121V11.9905H753.995ZM757.058 20.5H745.485V26.6266H757.058V20.5ZM742.422 23.5633V46.7089H748.549V23.5633H742.422ZM849.64 81.4272H846.577V84.4905H849.64V81.4272ZM849.64 46.7089H852.704V43.6456H849.64V46.7089ZM838.068 46.7089H835.004V49.7721H838.068V46.7089ZM838.068 35.1361H841.131V32.0728H838.068V35.1361ZM826.495 35.1361H823.432V38.1994H826.495V35.1361ZM826.495 0.417725V-2.64555H823.432V0.417725H826.495ZM849.64 0.417725H852.704V-2.64555H849.64V0.417725ZM849.64 35.1361H846.577V38.1994H849.64V35.1361ZM872.786 35.1361V38.1994H875.849V35.1361H872.786ZM872.786 0.417725V-2.64555H869.723V0.417725H872.786ZM895.931 0.417725H898.995V-2.64555H895.931V0.417725ZM895.931 35.1361V38.1994H898.995V35.1361H895.931ZM884.359 35.1361V32.0728H881.295V35.1361H884.359ZM884.359 46.7089V49.7721H887.422V46.7089H884.359ZM872.786 46.7089V43.6456H869.723V46.7089H872.786ZM872.786 81.4272V84.4905H875.849V81.4272H872.786ZM852.704 81.4272V46.7089H846.577V81.4272H852.704ZM849.64 43.6456H838.068V49.7721H849.64V43.6456ZM841.131 46.7089V35.1361H835.004V46.7089H841.131ZM838.068 32.0728H826.495V38.1994H838.068V32.0728ZM829.558 35.1361V0.417725H823.432V35.1361H829.558ZM826.495 3.481H849.64V-2.64555H826.495V3.481ZM846.577 0.417725V35.1361H852.704V0.417725H846.577ZM849.64 38.1994H872.786V32.0728H849.64V38.1994ZM875.849 35.1361V0.417725H869.723V35.1361H875.849ZM872.786 3.481H895.931V-2.64555H872.786V3.481ZM892.868 0.417725V35.1361H898.995V0.417725H892.868ZM895.931 32.0728H884.359V38.1994H895.931V32.0728ZM881.295 35.1361V46.7089H887.422V35.1361H881.295ZM884.359 43.6456H872.786V49.7721H884.359V43.6456ZM869.723 46.7089V81.4272H875.849V46.7089H869.723ZM872.786 78.3639H849.64V84.4905H872.786V78.3639Z" fill="#7424FF" mask="url(#path-2-outside-1_24_6987)"/>
<mask id="path-4-outside-2_24_6987" maskUnits="userSpaceOnUse" x="949" y="-3" width="65" height="88" fill="black">
<rect fill="white" x="949" y="-3" width="65" height="88"/>
<path d="M952.573 81.4272V69.8544H964.146V58.2816H975.718V46.7089H987.291V35.1361H975.718V23.5633H964.146V11.9905H952.573V0.417725H975.718V11.9905H987.291V23.5633H998.864V35.1361H1010.44V46.7089H998.864V58.2816H987.291V69.8544H975.718V81.4272H952.573Z"/>
</mask>
<path d="M952.573 81.4272V69.8544H964.146V58.2816H975.718V46.7089H987.291V35.1361H975.718V23.5633H964.146V11.9905H952.573V0.417725H975.718V11.9905H987.291V23.5633H998.864V35.1361H1010.44V46.7089H998.864V58.2816H987.291V69.8544H975.718V81.4272H952.573Z" fill="#FF1A1A"/>
<path d="M952.573 81.4272H949.51V84.4905H952.573V81.4272ZM952.573 69.8544V66.7912H949.51V69.8544H952.573ZM964.146 69.8544V72.9177H967.209V69.8544H964.146ZM964.146 58.2816V55.2184H961.082V58.2816H964.146ZM975.718 58.2816V61.3449H978.782V58.2816H975.718ZM975.718 46.7089V43.6456H972.655V46.7089H975.718ZM987.291 46.7089V49.7721H990.354V46.7089H987.291ZM987.291 35.1361H990.354V32.0728H987.291V35.1361ZM975.718 35.1361H972.655V38.1994H975.718V35.1361ZM975.718 23.5633H978.782V20.5H975.718V23.5633ZM964.146 23.5633H961.082V26.6266H964.146V23.5633ZM964.146 11.9905H967.209V8.92723H964.146V11.9905ZM952.573 11.9905H949.51V15.0538H952.573V11.9905ZM952.573 0.417725V-2.64555H949.51V0.417725H952.573ZM975.718 0.417725H978.782V-2.64555H975.718V0.417725ZM975.718 11.9905H972.655V15.0538H975.718V11.9905ZM987.291 11.9905H990.354V8.92723H987.291V11.9905ZM987.291 23.5633H984.228V26.6266H987.291V23.5633ZM998.864 23.5633H1001.93V20.5H998.864V23.5633ZM998.864 35.1361H995.801V38.1994H998.864V35.1361ZM1010.44 35.1361H1013.5V32.0728H1010.44V35.1361ZM1010.44 46.7089V49.7721H1013.5V46.7089H1010.44ZM998.864 46.7089V43.6456H995.801V46.7089H998.864ZM998.864 58.2816V61.3449H1001.93V58.2816H998.864ZM987.291 58.2816V55.2184H984.228V58.2816H987.291ZM987.291 69.8544V72.9177H990.354V69.8544H987.291ZM975.718 69.8544V66.7912H972.655V69.8544H975.718ZM975.718 81.4272V84.4905H978.782V81.4272H975.718ZM955.636 81.4272V69.8544H949.51V81.4272H955.636ZM952.573 72.9177H964.146V66.7912H952.573V72.9177ZM967.209 69.8544V58.2816H961.082V69.8544H967.209ZM964.146 61.3449H975.718V55.2184H964.146V61.3449ZM978.782 58.2816V46.7089H972.655V58.2816H978.782ZM975.718 49.7721H987.291V43.6456H975.718V49.7721ZM990.354 46.7089V35.1361H984.228V46.7089H990.354ZM987.291 32.0728H975.718V38.1994H987.291V32.0728ZM978.782 35.1361V23.5633H972.655V35.1361H978.782ZM975.718 20.5H964.146V26.6266H975.718V20.5ZM967.209 23.5633V11.9905H961.082V23.5633H967.209ZM964.146 8.92723H952.573V15.0538H964.146V8.92723ZM955.636 11.9905V0.417725H949.51V11.9905H955.636ZM952.573 3.481H975.718V-2.64555H952.573V3.481ZM972.655 0.417725V11.9905H978.782V0.417725H972.655ZM975.718 15.0538H987.291V8.92723H975.718V15.0538ZM984.228 11.9905V23.5633H990.354V11.9905H984.228ZM987.291 26.6266H998.864V20.5H987.291V26.6266ZM995.801 23.5633V35.1361H1001.93V23.5633H995.801ZM998.864 38.1994H1010.44V32.0728H998.864V38.1994ZM1007.37 35.1361V46.7089H1013.5V35.1361H1007.37ZM1010.44 43.6456H998.864V49.7721H1010.44V43.6456ZM995.801 46.7089V58.2816H1001.93V46.7089H995.801ZM998.864 55.2184H987.291V61.3449H998.864V55.2184ZM984.228 58.2816V69.8544H990.354V58.2816H984.228ZM987.291 66.7912H975.718V72.9177H987.291V66.7912ZM972.655 69.8544V81.4272H978.782V69.8544H972.655ZM975.718 78.3639H952.573V84.4905H975.718V78.3639Z" fill="white" mask="url(#path-4-outside-2_24_6987)"/>
<path d="M1044.52 85.3698V81.7397H1040.89V78.1095H1037.26V67.219H1040.89V63.5888H1044.52V59.9586H1051.78V63.5888H1048.15V67.219H1044.52V78.1095H1048.15V81.7397H1051.78V85.3698H1044.52ZM1059.04 85.3698V59.9586H1080.82V63.5888H1084.45V74.4793H1080.82V78.1095H1066.3V85.3698H1059.04ZM1066.3 74.4793H1077.19V63.5888H1066.3V74.4793ZM1098.97 85.3698V81.7397H1095.34V78.1095H1091.71V74.4793H1088.08V59.9586H1095.34V70.8491H1098.97V74.4793H1102.6V70.8491H1106.23V59.9586H1113.49V74.4793H1109.86V78.1095H1106.23V81.7397H1102.6V85.3698H1098.97ZM1117.12 85.3698V59.9586H1142.54V63.5888H1124.38V70.8491H1138.91V74.4793H1124.38V81.7397H1142.54V85.3698H1117.12ZM1182.03 59.9586V63.5888H1178.4V59.9586H1182.03ZM1174.77 63.5888H1178.4V67.219H1174.77V63.5888ZM1171.14 67.219H1174.77V70.8491H1171.14V67.219ZM1167.51 70.8491H1171.14V74.4793H1167.51V70.8491ZM1163.88 74.4793H1167.51V78.1095H1163.88V74.4793ZM1160.25 78.1095H1163.88V81.7397H1160.25V78.1095ZM1156.62 81.7397H1160.25V85.3698H1156.62V81.7397ZM1192.05 85.3698V59.9586H1213.83V63.5888H1217.46V74.4793H1213.83V78.1095H1199.31V85.3698H1192.05ZM1199.31 74.4793H1210.2V63.5888H1199.31V74.4793ZM1231.98 85.3698V81.7397H1228.35V78.1095H1224.72V74.4793H1221.09V59.9586H1228.35V70.8491H1231.98V74.4793H1235.61V70.8491H1239.24V59.9586H1246.5V74.4793H1242.87V78.1095H1239.24V81.7397H1235.61V85.3698H1231.98ZM1250.13 85.3698V59.9586H1271.91V63.5888H1275.54V74.4793H1271.91V78.1095H1257.39V85.3698H1250.13ZM1257.39 74.4793H1268.28V63.5888H1257.39V74.4793ZM1282.81 85.3698V81.7397H1286.44V78.1095H1290.07V67.219H1286.44V63.5888H1282.81V59.9586H1290.07V63.5888H1293.7V67.219H1297.33V78.1095H1293.7V81.7397H1290.07V85.3698H1282.81Z" fill="white"/>
<mask id="path-7-outside-3_24_6987" maskUnits="userSpaceOnUse" x="8" y="5" width="65" height="88" fill="black">
<rect fill="white" x="8" y="5" width="65" height="88"/>
<path d="M46.2911 89.4272V77.8544H34.7184V66.2816H23.1456V54.7089H11.5728V43.1361H23.1456V31.5633H34.7184V19.9905H46.2911V8.41772H69.4367V19.9905H57.8639V31.5633H46.2911V43.1361H34.7184V54.7089H46.2911V66.2816H57.8639V77.8544H69.4367V89.4272H46.2911Z"/>
</mask>
<path d="M46.2911 89.4272V77.8544H34.7184V66.2816H23.1456V54.7089H11.5728V43.1361H23.1456V31.5633H34.7184V19.9905H46.2911V8.41772H69.4367V19.9905H57.8639V31.5633H46.2911V43.1361H34.7184V54.7089H46.2911V66.2816H57.8639V77.8544H69.4367V89.4272H46.2911Z" fill="#FF1A1A"/>
<path d="M46.2911 89.4272H43.2279V92.4905H46.2911V89.4272ZM46.2911 77.8544H49.3544V74.7912H46.2911V77.8544ZM34.7184 77.8544H31.6551V80.9177H34.7184V77.8544ZM34.7184 66.2816H37.7816V63.2184H34.7184V66.2816ZM23.1456 66.2816H20.0823V69.3449H23.1456V66.2816ZM23.1456 54.7089H26.2088V51.6456H23.1456V54.7089ZM11.5728 54.7089H8.50951V57.7721H11.5728V54.7089ZM11.5728 43.1361V40.0728H8.50951V43.1361H11.5728ZM23.1456 43.1361V46.1994H26.2088V43.1361H23.1456ZM23.1456 31.5633V28.5H20.0823V31.5633H23.1456ZM34.7184 31.5633V34.6266H37.7816V31.5633H34.7184ZM34.7184 19.9905V16.9272H31.6551V19.9905H34.7184ZM46.2911 19.9905V23.0538H49.3544V19.9905H46.2911ZM46.2911 8.41772V5.35445H43.2279V8.41772H46.2911ZM69.4367 8.41772H72.5V5.35445H69.4367V8.41772ZM69.4367 19.9905V23.0538H72.5V19.9905H69.4367ZM57.8639 19.9905V16.9272H54.8006V19.9905H57.8639ZM57.8639 31.5633V34.6266H60.9272V31.5633H57.8639ZM46.2911 31.5633V28.5H43.2279V31.5633H46.2911ZM46.2911 43.1361V46.1994H49.3544V43.1361H46.2911ZM34.7184 43.1361V40.0728H31.6551V43.1361H34.7184ZM34.7184 54.7089H31.6551V57.7721H34.7184V54.7089ZM46.2911 54.7089H49.3544V51.6456H46.2911V54.7089ZM46.2911 66.2816H43.2279V69.3449H46.2911V66.2816ZM57.8639 66.2816H60.9272V63.2184H57.8639V66.2816ZM57.8639 77.8544H54.8006V80.9177H57.8639V77.8544ZM69.4367 77.8544H72.5V74.7912H69.4367V77.8544ZM69.4367 89.4272V92.4905H72.5V89.4272H69.4367ZM49.3544 89.4272V77.8544H43.2279V89.4272H49.3544ZM46.2911 74.7912H34.7184V80.9177H46.2911V74.7912ZM37.7816 77.8544V66.2816H31.6551V77.8544H37.7816ZM34.7184 63.2184H23.1456V69.3449H34.7184V63.2184ZM26.2088 66.2816V54.7089H20.0823V66.2816H26.2088ZM23.1456 51.6456H11.5728V57.7721H23.1456V51.6456ZM14.6361 54.7089V43.1361H8.50951V54.7089H14.6361ZM11.5728 46.1994H23.1456V40.0728H11.5728V46.1994ZM26.2088 43.1361V31.5633H20.0823V43.1361H26.2088ZM23.1456 34.6266H34.7184V28.5H23.1456V34.6266ZM37.7816 31.5633V19.9905H31.6551V31.5633H37.7816ZM34.7184 23.0538H46.2911V16.9272H34.7184V23.0538ZM49.3544 19.9905V8.41772H43.2279V19.9905H49.3544ZM46.2911 11.481H69.4367V5.35445H46.2911V11.481ZM66.3734 8.41772V19.9905H72.5V8.41772H66.3734ZM69.4367 16.9272H57.8639V23.0538H69.4367V16.9272ZM54.8006 19.9905V31.5633H60.9272V19.9905H54.8006ZM57.8639 28.5H46.2911V34.6266H57.8639V28.5ZM43.2279 31.5633V43.1361H49.3544V31.5633H43.2279ZM46.2911 40.0728H34.7184V46.1994H46.2911V40.0728ZM31.6551 43.1361V54.7089H37.7816V43.1361H31.6551ZM34.7184 57.7721H46.2911V51.6456H34.7184V57.7721ZM43.2279 54.7089V66.2816H49.3544V54.7089H43.2279ZM46.2911 69.3449H57.8639V63.2184H46.2911V69.3449ZM54.8006 66.2816V77.8544H60.9272V66.2816H54.8006ZM57.8639 80.9177H69.4367V74.7912H57.8639V80.9177ZM66.3734 77.8544V89.4272H72.5V77.8544H66.3734ZM69.4367 86.3639H46.2911V92.4905H69.4367V86.3639Z" fill="white" mask="url(#path-7-outside-3_24_6987)"/>
</svg>
