<svg width="1440" height="137" viewBox="0 0 1440 137" fill="none" xmlns="http://www.w3.org/2000/svg">
<mask id="path-1-outside-1_81_2028" maskUnits="userSpaceOnUse" x="348" y="14" width="65" height="88" fill="black">
<rect fill="white" x="348" y="14" width="65" height="88"/>
<path d="M409.427 98.4272V86.8544H397.854V75.2816H386.282V63.7089H374.709V52.1361H386.282V40.5633H397.854V28.9905H409.427V17.4177H386.282V28.9905H374.709V40.5633H363.136V52.1361H351.563V63.7089H363.136V75.2816H374.709V86.8544H386.282V98.4272H409.427Z"/>
</mask>
<path d="M409.427 98.4272V86.8544H397.854V75.2816H386.282V63.7089H374.709V52.1361H386.282V40.5633H397.854V28.9905H409.427V17.4177H386.282V28.9905H374.709V40.5633H363.136V52.1361H351.563V63.7089H363.136V75.2816H374.709V86.8544H386.282V98.4272H409.427Z" fill="#FF1A1A"/>
<path d="M409.427 98.4272H412.49V101.49H409.427V98.4272ZM409.427 86.8544V83.7912H412.49V86.8544H409.427ZM397.854 86.8544V89.9177H394.791V86.8544H397.854ZM397.854 75.2816V72.2184H400.918V75.2816H397.854ZM386.282 75.2816V78.3449H383.218V75.2816H386.282ZM386.282 63.7089V60.6456H389.345V63.7089H386.282ZM374.709 63.7089V66.7721H371.646V63.7089H374.709ZM374.709 52.1361H371.646V49.0728H374.709V52.1361ZM386.282 52.1361H389.345V55.1994H386.282V52.1361ZM386.282 40.5633H383.218V37.5H386.282V40.5633ZM397.854 40.5633H400.918V43.6266H397.854V40.5633ZM397.854 28.9905H394.791V25.9272H397.854V28.9905ZM409.427 28.9905H412.49V32.0538H409.427V28.9905ZM409.427 17.4177V14.3544H412.49V17.4177H409.427ZM386.282 17.4177H383.218V14.3544H386.282V17.4177ZM386.282 28.9905H389.345V32.0538H386.282V28.9905ZM374.709 28.9905H371.646V25.9272H374.709V28.9905ZM374.709 40.5633H377.772V43.6266H374.709V40.5633ZM363.136 40.5633H360.073V37.5H363.136V40.5633ZM363.136 52.1361H366.199V55.1994H363.136V52.1361ZM351.563 52.1361H348.5V49.0728H351.563V52.1361ZM351.563 63.7089V66.7721H348.5V63.7089H351.563ZM363.136 63.7089V60.6456H366.199V63.7089H363.136ZM363.136 75.2816V78.3449H360.073V75.2816H363.136ZM374.709 75.2816V72.2184H377.772V75.2816H374.709ZM374.709 86.8544V89.9177H371.646V86.8544H374.709ZM386.282 86.8544V83.7912H389.345V86.8544H386.282ZM386.282 98.4272V101.49H383.218V98.4272H386.282ZM406.364 98.4272V86.8544H412.49V98.4272H406.364ZM409.427 89.9177H397.854V83.7912H409.427V89.9177ZM394.791 86.8544V75.2816H400.918V86.8544H394.791ZM397.854 78.3449H386.282V72.2184H397.854V78.3449ZM383.218 75.2816V63.7089H389.345V75.2816H383.218ZM386.282 66.7721H374.709V60.6456H386.282V66.7721ZM371.646 63.7089V52.1361H377.772V63.7089H371.646ZM374.709 49.0728H386.282V55.1994H374.709V49.0728ZM383.218 52.1361V40.5633H389.345V52.1361H383.218ZM386.282 37.5H397.854V43.6266H386.282V37.5ZM394.791 40.5633V28.9905H400.918V40.5633H394.791ZM397.854 25.9272H409.427V32.0538H397.854V25.9272ZM406.364 28.9905V17.4177H412.49V28.9905H406.364ZM409.427 20.481H386.282V14.3544H409.427V20.481ZM389.345 17.4177V28.9905H383.218V17.4177H389.345ZM386.282 32.0538H374.709V25.9272H386.282V32.0538ZM377.772 28.9905V40.5633H371.646V28.9905H377.772ZM374.709 43.6266H363.136V37.5H374.709V43.6266ZM366.199 40.5633V52.1361H360.073V40.5633H366.199ZM363.136 55.1994H351.563V49.0728H363.136V55.1994ZM354.627 52.1361V63.7089H348.5V52.1361H354.627ZM351.563 60.6456H363.136V66.7721H351.563V60.6456ZM366.199 63.7089V75.2816H360.073V63.7089H366.199ZM363.136 72.2184H374.709V78.3449H363.136V72.2184ZM377.772 75.2816V86.8544H371.646V75.2816H377.772ZM374.709 83.7912H386.282V89.9177H374.709V83.7912ZM389.345 86.8544V98.4272H383.218V86.8544H389.345ZM386.282 95.3639H409.427V101.49H386.282V95.3639Z" fill="white" mask="url(#path-1-outside-1_81_2028)"/>
<mask id="path-3-outside-2_81_2028" maskUnits="userSpaceOnUse" x="435" y="14" width="65" height="88" fill="black">
<rect fill="white" x="435" y="14" width="65" height="88"/>
<path d="M496.427 98.4272V86.8544H484.854V75.2816H473.282V63.7089H461.709V52.1361H473.282V40.5633H484.854V28.9905H496.427V17.4177H473.282V28.9905H461.709V40.5633H450.136V52.1361H438.563V63.7089H450.136V75.2816H461.709V86.8544H473.282V98.4272H496.427Z"/>
</mask>
<path d="M496.427 98.4272V86.8544H484.854V75.2816H473.282V63.7089H461.709V52.1361H473.282V40.5633H484.854V28.9905H496.427V17.4177H473.282V28.9905H461.709V40.5633H450.136V52.1361H438.563V63.7089H450.136V75.2816H461.709V86.8544H473.282V98.4272H496.427Z" fill="#FF1A1A"/>
<path d="M496.427 98.4272H499.49V101.49H496.427V98.4272ZM496.427 86.8544V83.7912H499.49V86.8544H496.427ZM484.854 86.8544V89.9177H481.791V86.8544H484.854ZM484.854 75.2816V72.2184H487.918V75.2816H484.854ZM473.282 75.2816V78.3449H470.218V75.2816H473.282ZM473.282 63.7089V60.6456H476.345V63.7089H473.282ZM461.709 63.7089V66.7721H458.646V63.7089H461.709ZM461.709 52.1361H458.646V49.0728H461.709V52.1361ZM473.282 52.1361H476.345V55.1994H473.282V52.1361ZM473.282 40.5633H470.218V37.5H473.282V40.5633ZM484.854 40.5633H487.918V43.6266H484.854V40.5633ZM484.854 28.9905H481.791V25.9272H484.854V28.9905ZM496.427 28.9905H499.49V32.0538H496.427V28.9905ZM496.427 17.4177V14.3544H499.49V17.4177H496.427ZM473.282 17.4177H470.218V14.3544H473.282V17.4177ZM473.282 28.9905H476.345V32.0538H473.282V28.9905ZM461.709 28.9905H458.646V25.9272H461.709V28.9905ZM461.709 40.5633H464.772V43.6266H461.709V40.5633ZM450.136 40.5633H447.073V37.5H450.136V40.5633ZM450.136 52.1361H453.199V55.1994H450.136V52.1361ZM438.563 52.1361H435.5V49.0728H438.563V52.1361ZM438.563 63.7089V66.7721H435.5V63.7089H438.563ZM450.136 63.7089V60.6456H453.199V63.7089H450.136ZM450.136 75.2816V78.3449H447.073V75.2816H450.136ZM461.709 75.2816V72.2184H464.772V75.2816H461.709ZM461.709 86.8544V89.9177H458.646V86.8544H461.709ZM473.282 86.8544V83.7912H476.345V86.8544H473.282ZM473.282 98.4272V101.49H470.218V98.4272H473.282ZM493.364 98.4272V86.8544H499.49V98.4272H493.364ZM496.427 89.9177H484.854V83.7912H496.427V89.9177ZM481.791 86.8544V75.2816H487.918V86.8544H481.791ZM484.854 78.3449H473.282V72.2184H484.854V78.3449ZM470.218 75.2816V63.7089H476.345V75.2816H470.218ZM473.282 66.7721H461.709V60.6456H473.282V66.7721ZM458.646 63.7089V52.1361H464.772V63.7089H458.646ZM461.709 49.0728H473.282V55.1994H461.709V49.0728ZM470.218 52.1361V40.5633H476.345V52.1361H470.218ZM473.282 37.5H484.854V43.6266H473.282V37.5ZM481.791 40.5633V28.9905H487.918V40.5633H481.791ZM484.854 25.9272H496.427V32.0538H484.854V25.9272ZM493.364 28.9905V17.4177H499.49V28.9905H493.364ZM496.427 20.481H473.282V14.3544H496.427V20.481ZM476.345 17.4177V28.9905H470.218V17.4177H476.345ZM473.282 32.0538H461.709V25.9272H473.282V32.0538ZM464.772 28.9905V40.5633H458.646V28.9905H464.772ZM461.709 43.6266H450.136V37.5H461.709V43.6266ZM453.199 40.5633V52.1361H447.073V40.5633H453.199ZM450.136 55.1994H438.563V49.0728H450.136V55.1994ZM441.627 52.1361V63.7089H435.5V52.1361H441.627ZM438.563 60.6456H450.136V66.7721H438.563V60.6456ZM453.199 63.7089V75.2816H447.073V63.7089H453.199ZM450.136 72.2184H461.709V78.3449H450.136V72.2184ZM464.772 75.2816V86.8544H458.646V75.2816H464.772ZM461.709 83.7912H473.282V89.9177H461.709V83.7912ZM476.345 86.8544V98.4272H470.218V86.8544H476.345ZM473.282 95.3639H496.427V101.49H473.282V95.3639Z" fill="white" mask="url(#path-3-outside-2_81_2028)"/>
<g filter="url(#filter0_d_81_2028)">
<path d="M568 112.878V16.82H650.335V30.5426H664.058V71.7103H636.613V85.4329H650.335V99.1555H664.058V112.878H622.89V99.1555H609.168V85.4329H595.445V112.878H568ZM595.445 71.7103H622.89V57.9877H636.613V30.5426H595.445V71.7103ZM691.503 112.878V99.1555H677.781V30.5426H691.503V16.82H760.116V30.5426H773.839V99.1555H760.116V112.878H691.503ZM705.226 99.1555H746.393V30.5426H705.226V99.1555ZM787.561 112.878V44.2652H801.284V30.5426H815.006V16.82H856.174V30.5426H869.896V44.2652H883.619V112.878H856.174V85.4329H815.006V112.878H787.561ZM815.006 71.7103H856.174V44.2652H842.451V30.5426H828.729V44.2652H815.006V71.7103ZM897.342 112.878V16.82H965.954V30.5426H979.677V44.2652H993.4V85.4329H979.677V99.1555H965.954V112.878H897.342ZM924.787 99.1555H952.232V85.4329H965.954V44.2652H952.232V30.5426H924.787V99.1555ZM1007.12 112.878V16.82H1034.57V30.5426H1048.29V44.2652H1062.01V30.5426H1075.73V16.82H1103.18V112.878H1075.73V57.9877H1062.01V85.4329H1048.29V57.9877H1034.57V112.878H1007.12ZM1116.9 112.878V44.2652H1130.63V30.5426H1144.35V16.82H1185.52V30.5426H1199.24V44.2652H1212.96V112.878H1185.52V85.4329H1144.35V112.878H1116.9ZM1144.35 71.7103H1185.52V44.2652H1171.79V30.5426H1158.07V44.2652H1144.35V71.7103ZM1226.68 112.878V16.82H1309.02V30.5426H1322.74V71.7103H1309.02V85.4329H1254.13V112.878H1226.68ZM1254.13 71.7103H1295.3V30.5426H1254.13V71.7103Z" fill="#E8D440"/>
<mask id="path-6-outside-3_81_2028" maskUnits="userSpaceOnUse" x="564" y="-4" width="763" height="104" fill="black">
<rect fill="white" x="564" y="-4" width="763" height="104"/>
<path d="M568 96.2774V0.21946H650.335V13.942H664.058V55.1097H636.613V68.8323H650.335V82.5549H664.058V96.2774H622.89V82.5549H609.168V68.8323H595.445V96.2774H568ZM595.445 55.1097H622.89V41.3872H636.613V13.942H595.445V55.1097ZM691.503 96.2774V82.5549H677.781V13.942H691.503V0.21946H760.116V13.942H773.839V82.5549H760.116V96.2774H691.503ZM705.226 82.5549H746.393V13.942H705.226V82.5549ZM787.561 96.2774V27.6646H801.284V13.942H815.006V0.21946H856.174V13.942H869.896V27.6646H883.619V96.2774H856.174V68.8323H815.006V96.2774H787.561ZM815.006 55.1097H856.174V27.6646H842.451V13.942H828.729V27.6646H815.006V55.1097ZM897.342 96.2774V0.21946H965.954V13.942H979.677V27.6646H993.4V68.8323H979.677V82.5549H965.954V96.2774H897.342ZM924.787 82.5549H952.232V68.8323H965.954V27.6646H952.232V13.942H924.787V82.5549ZM1007.12 96.2774V0.21946H1034.57V13.942H1048.29V27.6646H1062.01V13.942H1075.73V0.21946H1103.18V96.2774H1075.73V41.3872H1062.01V68.8323H1048.29V41.3872H1034.57V96.2774H1007.12ZM1116.9 96.2774V27.6646H1130.63V13.942H1144.35V0.21946H1185.52V13.942H1199.24V27.6646H1212.96V96.2774H1185.52V68.8323H1144.35V96.2774H1116.9ZM1144.35 55.1097H1185.52V27.6646H1171.79V13.942H1158.07V27.6646H1144.35V55.1097ZM1226.68 96.2774V0.21946H1309.02V13.942H1322.74V55.1097H1309.02V68.8323H1254.13V96.2774H1226.68ZM1254.13 55.1097H1295.3V13.942H1254.13V55.1097Z"/>
</mask>
<path d="M568 96.2774V0.21946H650.335V13.942H664.058V55.1097H636.613V68.8323H650.335V82.5549H664.058V96.2774H622.89V82.5549H609.168V68.8323H595.445V96.2774H568ZM595.445 55.1097H622.89V41.3872H636.613V13.942H595.445V55.1097ZM691.503 96.2774V82.5549H677.781V13.942H691.503V0.21946H760.116V13.942H773.839V82.5549H760.116V96.2774H691.503ZM705.226 82.5549H746.393V13.942H705.226V82.5549ZM787.561 96.2774V27.6646H801.284V13.942H815.006V0.21946H856.174V13.942H869.896V27.6646H883.619V96.2774H856.174V68.8323H815.006V96.2774H787.561ZM815.006 55.1097H856.174V27.6646H842.451V13.942H828.729V27.6646H815.006V55.1097ZM897.342 96.2774V0.21946H965.954V13.942H979.677V27.6646H993.4V68.8323H979.677V82.5549H965.954V96.2774H897.342ZM924.787 82.5549H952.232V68.8323H965.954V27.6646H952.232V13.942H924.787V82.5549ZM1007.12 96.2774V0.21946H1034.57V13.942H1048.29V27.6646H1062.01V13.942H1075.73V0.21946H1103.18V96.2774H1075.73V41.3872H1062.01V68.8323H1048.29V41.3872H1034.57V96.2774H1007.12ZM1116.9 96.2774V27.6646H1130.63V13.942H1144.35V0.21946H1185.52V13.942H1199.24V27.6646H1212.96V96.2774H1185.52V68.8323H1144.35V96.2774H1116.9ZM1144.35 55.1097H1185.52V27.6646H1171.79V13.942H1158.07V27.6646H1144.35V55.1097ZM1226.68 96.2774V0.21946H1309.02V13.942H1322.74V55.1097H1309.02V68.8323H1254.13V96.2774H1226.68ZM1254.13 55.1097H1295.3V13.942H1254.13V55.1097Z" fill="white"/>
<path d="M568 96.2774H564.368V99.9098H568V96.2774ZM568 0.21946V-3.41286H564.368V0.21946H568ZM650.335 0.21946H653.968V-3.41286H650.335V0.21946ZM650.335 13.942H646.703V17.5743H650.335V13.942ZM664.058 13.942H667.69V10.3097H664.058V13.942ZM664.058 55.1097V58.742H667.69V55.1097H664.058ZM636.613 55.1097V51.4774H632.981V55.1097H636.613ZM636.613 68.8323H632.981V72.4646H636.613V68.8323ZM650.335 68.8323H653.968V65.2H650.335V68.8323ZM650.335 82.5549H646.703V86.1872H650.335V82.5549ZM664.058 82.5549H667.69V78.9225H664.058V82.5549ZM664.058 96.2774V99.9098H667.69V96.2774H664.058ZM622.89 96.2774H619.258V99.9098H622.89V96.2774ZM622.89 82.5549H626.523V78.9225H622.89V82.5549ZM609.168 82.5549H605.535V86.1872H609.168V82.5549ZM609.168 68.8323H612.8V65.2H609.168V68.8323ZM595.445 68.8323V65.2H591.813V68.8323H595.445ZM595.445 96.2774V99.9098H599.077V96.2774H595.445ZM595.445 55.1097H591.813V58.742H595.445V55.1097ZM622.89 55.1097V58.742H626.523V55.1097H622.89ZM622.89 41.3872V37.7548H619.258V41.3872H622.89ZM636.613 41.3872V45.0195H640.245V41.3872H636.613ZM636.613 13.942H640.245V10.3097H636.613V13.942ZM595.445 13.942V10.3097H591.813V13.942H595.445ZM571.632 96.2774V0.21946H564.368V96.2774H571.632ZM568 3.85178H650.335V-3.41286H568V3.85178ZM646.703 0.21946V13.942H653.968V0.21946H646.703ZM650.335 17.5743H664.058V10.3097H650.335V17.5743ZM660.426 13.942V55.1097H667.69V13.942H660.426ZM664.058 51.4774H636.613V58.742H664.058V51.4774ZM632.981 55.1097V68.8323H640.245V55.1097H632.981ZM636.613 72.4646H650.335V65.2H636.613V72.4646ZM646.703 68.8323V82.5549H653.968V68.8323H646.703ZM650.335 86.1872H664.058V78.9225H650.335V86.1872ZM660.426 82.5549V96.2774H667.69V82.5549H660.426ZM664.058 92.6451H622.89V99.9098H664.058V92.6451ZM626.523 96.2774V82.5549H619.258V96.2774H626.523ZM622.89 78.9225H609.168V86.1872H622.89V78.9225ZM612.8 82.5549V68.8323H605.535V82.5549H612.8ZM609.168 65.2H595.445V72.4646H609.168V65.2ZM591.813 68.8323V96.2774H599.077V68.8323H591.813ZM595.445 92.6451H568V99.9098H595.445V92.6451ZM595.445 58.742H622.89V51.4774H595.445V58.742ZM626.523 55.1097V41.3872H619.258V55.1097H626.523ZM622.89 45.0195H636.613V37.7548H622.89V45.0195ZM640.245 41.3872V13.942H632.981V41.3872H640.245ZM636.613 10.3097H595.445V17.5743H636.613V10.3097ZM591.813 13.942V55.1097H599.077V13.942H591.813ZM691.503 96.2774H687.871V99.9098H691.503V96.2774ZM691.503 82.5549H695.135V78.9225H691.503V82.5549ZM677.781 82.5549H674.148V86.1872H677.781V82.5549ZM677.781 13.942V10.3097H674.148V13.942H677.781ZM691.503 13.942V17.5743H695.135V13.942H691.503ZM691.503 0.21946V-3.41286H687.871V0.21946H691.503ZM760.116 0.21946H763.748V-3.41286H760.116V0.21946ZM760.116 13.942H756.484V17.5743H760.116V13.942ZM773.839 13.942H777.471V10.3097H773.839V13.942ZM773.839 82.5549V86.1872H777.471V82.5549H773.839ZM760.116 82.5549V78.9225H756.484V82.5549H760.116ZM760.116 96.2774V99.9098H763.748V96.2774H760.116ZM705.226 82.5549H701.593V86.1872H705.226V82.5549ZM746.393 82.5549V86.1872H750.026V82.5549H746.393ZM746.393 13.942H750.026V10.3097H746.393V13.942ZM705.226 13.942V10.3097H701.593V13.942H705.226ZM695.135 96.2774V82.5549H687.871V96.2774H695.135ZM691.503 78.9225H677.781V86.1872H691.503V78.9225ZM681.413 82.5549V13.942H674.148V82.5549H681.413ZM677.781 17.5743H691.503V10.3097H677.781V17.5743ZM695.135 13.942V0.21946H687.871V13.942H695.135ZM691.503 3.85178H760.116V-3.41286H691.503V3.85178ZM756.484 0.21946V13.942H763.748V0.21946H756.484ZM760.116 17.5743H773.839V10.3097H760.116V17.5743ZM770.206 13.942V82.5549H777.471V13.942H770.206ZM773.839 78.9225H760.116V86.1872H773.839V78.9225ZM756.484 82.5549V96.2774H763.748V82.5549H756.484ZM760.116 92.6451H691.503V99.9098H760.116V92.6451ZM705.226 86.1872H746.393V78.9225H705.226V86.1872ZM750.026 82.5549V13.942H742.761V82.5549H750.026ZM746.393 10.3097H705.226V17.5743H746.393V10.3097ZM701.593 13.942V82.5549H708.858V13.942H701.593ZM787.561 96.2774H783.929V99.9098H787.561V96.2774ZM787.561 27.6646V24.0323H783.929V27.6646H787.561ZM801.284 27.6646V31.2969H804.916V27.6646H801.284ZM801.284 13.942V10.3097H797.651V13.942H801.284ZM815.006 13.942V17.5743H818.639V13.942H815.006ZM815.006 0.21946V-3.41286H811.374V0.21946H815.006ZM856.174 0.21946H859.806V-3.41286H856.174V0.21946ZM856.174 13.942H852.542V17.5743H856.174V13.942ZM869.896 13.942H873.529V10.3097H869.896V13.942ZM869.896 27.6646H866.264V31.2969H869.896V27.6646ZM883.619 27.6646H887.251V24.0323H883.619V27.6646ZM883.619 96.2774V99.9098H887.251V96.2774H883.619ZM856.174 96.2774H852.542V99.9098H856.174V96.2774ZM856.174 68.8323H859.806V65.2H856.174V68.8323ZM815.006 68.8323V65.2H811.374V68.8323H815.006ZM815.006 96.2774V99.9098H818.639V96.2774H815.006ZM815.006 55.1097H811.374V58.742H815.006V55.1097ZM856.174 55.1097V58.742H859.806V55.1097H856.174ZM856.174 27.6646H859.806V24.0323H856.174V27.6646ZM842.451 27.6646H838.819V31.2969H842.451V27.6646ZM842.451 13.942H846.084V10.3097H842.451V13.942ZM828.729 13.942V10.3097H825.096V13.942H828.729ZM828.729 27.6646V31.2969H832.361V27.6646H828.729ZM815.006 27.6646V24.0323H811.374V27.6646H815.006ZM791.193 96.2774V27.6646H783.929V96.2774H791.193ZM787.561 31.2969H801.284V24.0323H787.561V31.2969ZM804.916 27.6646V13.942H797.651V27.6646H804.916ZM801.284 17.5743H815.006V10.3097H801.284V17.5743ZM818.639 13.942V0.21946H811.374V13.942H818.639ZM815.006 3.85178H856.174V-3.41286H815.006V3.85178ZM852.542 0.21946V13.942H859.806V0.21946H852.542ZM856.174 17.5743H869.896V10.3097H856.174V17.5743ZM866.264 13.942V27.6646H873.529V13.942H866.264ZM869.896 31.2969H883.619V24.0323H869.896V31.2969ZM879.987 27.6646V96.2774H887.251V27.6646H879.987ZM883.619 92.6451H856.174V99.9098H883.619V92.6451ZM859.806 96.2774V68.8323H852.542V96.2774H859.806ZM856.174 65.2H815.006V72.4646H856.174V65.2ZM811.374 68.8323V96.2774H818.639V68.8323H811.374ZM815.006 92.6451H787.561V99.9098H815.006V92.6451ZM815.006 58.742H856.174V51.4774H815.006V58.742ZM859.806 55.1097V27.6646H852.542V55.1097H859.806ZM856.174 24.0323H842.451V31.2969H856.174V24.0323ZM846.084 27.6646V13.942H838.819V27.6646H846.084ZM842.451 10.3097H828.729V17.5743H842.451V10.3097ZM825.096 13.942V27.6646H832.361V13.942H825.096ZM828.729 24.0323H815.006V31.2969H828.729V24.0323ZM811.374 27.6646V55.1097H818.639V27.6646H811.374ZM897.342 96.2774H893.709V99.9098H897.342V96.2774ZM897.342 0.21946V-3.41286H893.709V0.21946H897.342ZM965.954 0.21946H969.587V-3.41286H965.954V0.21946ZM965.954 13.942H962.322V17.5743H965.954V13.942ZM979.677 13.942H983.309V10.3097H979.677V13.942ZM979.677 27.6646H976.045V31.2969H979.677V27.6646ZM993.4 27.6646H997.032V24.0323H993.4V27.6646ZM993.4 68.8323V72.4646H997.032V68.8323H993.4ZM979.677 68.8323V65.2H976.045V68.8323H979.677ZM979.677 82.5549V86.1872H983.309V82.5549H979.677ZM965.954 82.5549V78.9225H962.322V82.5549H965.954ZM965.954 96.2774V99.9098H969.587V96.2774H965.954ZM924.787 82.5549H921.154V86.1872H924.787V82.5549ZM952.232 82.5549V86.1872H955.864V82.5549H952.232ZM952.232 68.8323V65.2H948.6V68.8323H952.232ZM965.954 68.8323V72.4646H969.587V68.8323H965.954ZM965.954 27.6646H969.587V24.0323H965.954V27.6646ZM952.232 27.6646H948.6V31.2969H952.232V27.6646ZM952.232 13.942H955.864V10.3097H952.232V13.942ZM924.787 13.942V10.3097H921.154V13.942H924.787ZM900.974 96.2774V0.21946H893.709V96.2774H900.974ZM897.342 3.85178H965.954V-3.41286H897.342V3.85178ZM962.322 0.21946V13.942H969.587V0.21946H962.322ZM965.954 17.5743H979.677V10.3097H965.954V17.5743ZM976.045 13.942V27.6646H983.309V13.942H976.045ZM979.677 31.2969H993.4V24.0323H979.677V31.2969ZM989.767 27.6646V68.8323H997.032V27.6646H989.767ZM993.4 65.2H979.677V72.4646H993.4V65.2ZM976.045 68.8323V82.5549H983.309V68.8323H976.045ZM979.677 78.9225H965.954V86.1872H979.677V78.9225ZM962.322 82.5549V96.2774H969.587V82.5549H962.322ZM965.954 92.6451H897.342V99.9098H965.954V92.6451ZM924.787 86.1872H952.232V78.9225H924.787V86.1872ZM955.864 82.5549V68.8323H948.6V82.5549H955.864ZM952.232 72.4646H965.954V65.2H952.232V72.4646ZM969.587 68.8323V27.6646H962.322V68.8323H969.587ZM965.954 24.0323H952.232V31.2969H965.954V24.0323ZM955.864 27.6646V13.942H948.6V27.6646H955.864ZM952.232 10.3097H924.787V17.5743H952.232V10.3097ZM921.154 13.942V82.5549H928.419V13.942H921.154ZM1007.12 96.2774H1003.49V99.9098H1007.12V96.2774ZM1007.12 0.21946V-3.41286H1003.49V0.21946H1007.12ZM1034.57 0.21946H1038.2V-3.41286H1034.57V0.21946ZM1034.57 13.942H1030.93V17.5743H1034.57V13.942ZM1048.29 13.942H1051.92V10.3097H1048.29V13.942ZM1048.29 27.6646H1044.66V31.2969H1048.29V27.6646ZM1062.01 27.6646V31.2969H1065.64V27.6646H1062.01ZM1062.01 13.942V10.3097H1058.38V13.942H1062.01ZM1075.73 13.942V17.5743H1079.37V13.942H1075.73ZM1075.73 0.21946V-3.41286H1072.1V0.21946H1075.73ZM1103.18 0.21946H1106.81V-3.41286H1103.18V0.21946ZM1103.18 96.2774V99.9098H1106.81V96.2774H1103.18ZM1075.73 96.2774H1072.1V99.9098H1075.73V96.2774ZM1075.73 41.3872H1079.37V37.7548H1075.73V41.3872ZM1062.01 41.3872V37.7548H1058.38V41.3872H1062.01ZM1062.01 68.8323V72.4646H1065.64V68.8323H1062.01ZM1048.29 68.8323H1044.66V72.4646H1048.29V68.8323ZM1048.29 41.3872H1051.92V37.7548H1048.29V41.3872ZM1034.57 41.3872V37.7548H1030.93V41.3872H1034.57ZM1034.57 96.2774V99.9098H1038.2V96.2774H1034.57ZM1010.75 96.2774V0.21946H1003.49V96.2774H1010.75ZM1007.12 3.85178H1034.57V-3.41286H1007.12V3.85178ZM1030.93 0.21946V13.942H1038.2V0.21946H1030.93ZM1034.57 17.5743H1048.29V10.3097H1034.57V17.5743ZM1044.66 13.942V27.6646H1051.92V13.942H1044.66ZM1048.29 31.2969H1062.01V24.0323H1048.29V31.2969ZM1065.64 27.6646V13.942H1058.38V27.6646H1065.64ZM1062.01 17.5743H1075.73V10.3097H1062.01V17.5743ZM1079.37 13.942V0.21946H1072.1V13.942H1079.37ZM1075.73 3.85178H1103.18V-3.41286H1075.73V3.85178ZM1099.55 0.21946V96.2774H1106.81V0.21946H1099.55ZM1103.18 92.6451H1075.73V99.9098H1103.18V92.6451ZM1079.37 96.2774V41.3872H1072.1V96.2774H1079.37ZM1075.73 37.7548H1062.01V45.0195H1075.73V37.7548ZM1058.38 41.3872V68.8323H1065.64V41.3872H1058.38ZM1062.01 65.2H1048.29V72.4646H1062.01V65.2ZM1051.92 68.8323V41.3872H1044.66V68.8323H1051.92ZM1048.29 37.7548H1034.57V45.0195H1048.29V37.7548ZM1030.93 41.3872V96.2774H1038.2V41.3872H1030.93ZM1034.57 92.6451H1007.12V99.9098H1034.57V92.6451ZM1116.9 96.2774H1113.27V99.9098H1116.9V96.2774ZM1116.9 27.6646V24.0323H1113.27V27.6646H1116.9ZM1130.63 27.6646V31.2969H1134.26V27.6646H1130.63ZM1130.63 13.942V10.3097H1126.99V13.942H1130.63ZM1144.35 13.942V17.5743H1147.98V13.942H1144.35ZM1144.35 0.21946V-3.41286H1140.72V0.21946H1144.35ZM1185.52 0.21946H1189.15V-3.41286H1185.52V0.21946ZM1185.52 13.942H1181.88V17.5743H1185.52V13.942ZM1199.24 13.942H1202.87V10.3097H1199.24V13.942ZM1199.24 27.6646H1195.61V31.2969H1199.24V27.6646ZM1212.96 27.6646H1216.59V24.0323H1212.96V27.6646ZM1212.96 96.2774V99.9098H1216.59V96.2774H1212.96ZM1185.52 96.2774H1181.88V99.9098H1185.52V96.2774ZM1185.52 68.8323H1189.15V65.2H1185.52V68.8323ZM1144.35 68.8323V65.2H1140.72V68.8323H1144.35ZM1144.35 96.2774V99.9098H1147.98V96.2774H1144.35ZM1144.35 55.1097H1140.72V58.742H1144.35V55.1097ZM1185.52 55.1097V58.742H1189.15V55.1097H1185.52ZM1185.52 27.6646H1189.15V24.0323H1185.52V27.6646ZM1171.79 27.6646H1168.16V31.2969H1171.79V27.6646ZM1171.79 13.942H1175.43V10.3097H1171.79V13.942ZM1158.07 13.942V10.3097H1154.44V13.942H1158.07ZM1158.07 27.6646V31.2969H1161.7V27.6646H1158.07ZM1144.35 27.6646V24.0323H1140.72V27.6646H1144.35ZM1120.54 96.2774V27.6646H1113.27V96.2774H1120.54ZM1116.9 31.2969H1130.63V24.0323H1116.9V31.2969ZM1134.26 27.6646V13.942H1126.99V27.6646H1134.26ZM1130.63 17.5743H1144.35V10.3097H1130.63V17.5743ZM1147.98 13.942V0.21946H1140.72V13.942H1147.98ZM1144.35 3.85178H1185.52V-3.41286H1144.35V3.85178ZM1181.88 0.21946V13.942H1189.15V0.21946H1181.88ZM1185.52 17.5743H1199.24V10.3097H1185.52V17.5743ZM1195.61 13.942V27.6646H1202.87V13.942H1195.61ZM1199.24 31.2969H1212.96V24.0323H1199.24V31.2969ZM1209.33 27.6646V96.2774H1216.59V27.6646H1209.33ZM1212.96 92.6451H1185.52V99.9098H1212.96V92.6451ZM1189.15 96.2774V68.8323H1181.88V96.2774H1189.15ZM1185.52 65.2H1144.35V72.4646H1185.52V65.2ZM1140.72 68.8323V96.2774H1147.98V68.8323H1140.72ZM1144.35 92.6451H1116.9V99.9098H1144.35V92.6451ZM1144.35 58.742H1185.52V51.4774H1144.35V58.742ZM1189.15 55.1097V27.6646H1181.88V55.1097H1189.15ZM1185.52 24.0323H1171.79V31.2969H1185.52V24.0323ZM1175.43 27.6646V13.942H1168.16V27.6646H1175.43ZM1171.79 10.3097H1158.07V17.5743H1171.79V10.3097ZM1154.44 13.942V27.6646H1161.7V13.942H1154.44ZM1158.07 24.0323H1144.35V31.2969H1158.07V24.0323ZM1140.72 27.6646V55.1097H1147.98V27.6646H1140.72ZM1226.68 96.2774H1223.05V99.9098H1226.68V96.2774ZM1226.68 0.21946V-3.41286H1223.05V0.21946H1226.68ZM1309.02 0.21946H1312.65V-3.41286H1309.02V0.21946ZM1309.02 13.942H1305.39V17.5743H1309.02V13.942ZM1322.74 13.942H1326.37V10.3097H1322.74V13.942ZM1322.74 55.1097V58.742H1326.37V55.1097H1322.74ZM1309.02 55.1097V51.4774H1305.39V55.1097H1309.02ZM1309.02 68.8323V72.4646H1312.65V68.8323H1309.02ZM1254.13 68.8323V65.2H1250.5V68.8323H1254.13ZM1254.13 96.2774V99.9098H1257.76V96.2774H1254.13ZM1254.13 55.1097H1250.5V58.742H1254.13V55.1097ZM1295.3 55.1097V58.742H1298.93V55.1097H1295.3ZM1295.3 13.942H1298.93V10.3097H1295.3V13.942ZM1254.13 13.942V10.3097H1250.5V13.942H1254.13ZM1230.32 96.2774V0.21946H1223.05V96.2774H1230.32ZM1226.68 3.85178H1309.02V-3.41286H1226.68V3.85178ZM1305.39 0.21946V13.942H1312.65V0.21946H1305.39ZM1309.02 17.5743H1322.74V10.3097H1309.02V17.5743ZM1319.11 13.942V55.1097H1326.37V13.942H1319.11ZM1322.74 51.4774H1309.02V58.742H1322.74V51.4774ZM1305.39 55.1097V68.8323H1312.65V55.1097H1305.39ZM1309.02 65.2H1254.13V72.4646H1309.02V65.2ZM1250.5 68.8323V96.2774H1257.76V68.8323H1250.5ZM1254.13 92.6451H1226.68V99.9098H1254.13V92.6451ZM1254.13 58.742H1295.3V51.4774H1254.13V58.742ZM1298.93 55.1097V13.942H1291.66V55.1097H1298.93ZM1295.3 10.3097H1254.13V17.5743H1295.3V10.3097ZM1250.5 13.942V55.1097H1257.76V13.942H1250.5Z" fill="#7424FF" mask="url(#path-6-outside-3_81_2028)"/>
</g>
<defs>
<filter id="filter0_d_81_2028" x="563.257" y="0.219238" width="764.227" height="136.374" filterUnits="userSpaceOnUse" color-interpolation-filters="sRGB">
<feFlood flood-opacity="0" result="BackgroundImageFix"/>
<feColorMatrix in="SourceAlpha" type="matrix" values="0 0 0 0 0 0 0 0 0 0 0 0 0 0 0 0 0 0 127 0" result="hardAlpha"/>
<feOffset dy="18.9722"/>
<feGaussianBlur stdDeviation="2.37152"/>
<feComposite in2="hardAlpha" operator="out"/>
<feColorMatrix type="matrix" values="0 0 0 0 0.716667 0 0 0 0 0 0 0 0 0 1 0 0 0 0.33 0"/>
<feBlend mode="normal" in2="BackgroundImageFix" result="effect1_dropShadow_81_2028"/>
<feBlend mode="normal" in="SourceGraphic" in2="effect1_dropShadow_81_2028" result="shape"/>
</filter>
</defs>
</svg>
