<svg width="1440" height="135" viewBox="0 0 1440 135" fill="none" xmlns="http://www.w3.org/2000/svg">
<g filter="url(#filter0_d_81_2030)">
<path d="M214.168 111.277V28.942H186.723V15.2195H269.058V28.942H241.613V111.277H214.168ZM296.503 111.277V97.5549H282.781V56.3872H296.503V42.6646H365.116V56.3872H378.839V97.5549H365.116V111.277H296.503ZM310.226 97.5549H351.393V56.3872H310.226V97.5549ZM392.561 111.277V15.2195H420.006V70.1097H447.451V56.3872H461.174V42.6646H488.619V56.3872H474.896V70.1097H461.174V83.8323H474.896V97.5549H488.619V111.277H461.174V97.5549H447.451V83.8323H420.006V111.277H392.561ZM516.064 111.277V97.5549H502.342V56.3872H516.064V42.6646H584.677V56.3872H598.4V83.8323H529.787V97.5549H584.677V111.277H516.064ZM529.787 70.1097H570.954V56.3872H529.787V70.1097ZM612.122 111.277V42.6646H694.458V56.3872H708.18V111.277H680.735V56.3872H639.567V111.277H612.122ZM735.625 111.277V97.5549H721.903V56.3872H735.625V42.6646H804.238V56.3872H817.961V97.5549H804.238V111.277H735.625ZM749.348 97.5549H790.516V56.3872H749.348V97.5549ZM831.683 111.277V42.6646H914.019V56.3872H927.741V111.277H900.296V56.3872H886.573V111.277H859.128V56.3872H845.406V111.277H831.683ZM982.632 28.942V15.2195H1010.08V28.942H982.632ZM955.186 111.277V97.5549H982.632V56.3872H968.909V42.6646H1010.08V97.5549H1037.52V111.277H955.186ZM1064.97 111.277V97.5549H1051.24V56.3872H1064.97V42.6646H1147.3V56.3872H1078.69V97.5549H1147.3V111.277H1064.97ZM1161.02 111.277V97.5549H1229.64V83.8323H1174.75V70.1097H1161.02V56.3872H1174.75V42.6646H1243.36V56.3872H1188.47V70.1097H1243.36V83.8323H1257.08V97.5549H1243.36V111.277H1161.02Z" fill="#E8D440"/>
<mask id="path-2-outside-1_81_2030" maskUnits="userSpaceOnUse" x="185" y="-4" width="1078" height="104" fill="black">
<rect fill="white" x="185" y="-4" width="1078" height="104"/>
<path d="M216.168 96.2774V13.942H188.723V0.21946H271.058V13.942H243.613V96.2774H216.168ZM298.503 96.2774V82.5549H284.781V41.3872H298.503V27.6646H367.116V41.3872H380.839V82.5549H367.116V96.2774H298.503ZM312.226 82.5549H353.393V41.3872H312.226V82.5549ZM394.561 96.2774V0.21946H422.006V55.1097H449.451V41.3872H463.174V27.6646H490.619V41.3872H476.896V55.1097H463.174V68.8323H476.896V82.5549H490.619V96.2774H463.174V82.5549H449.451V68.8323H422.006V96.2774H394.561ZM518.064 96.2774V82.5549H504.342V41.3872H518.064V27.6646H586.677V41.3872H600.4V68.8323H531.787V82.5549H586.677V96.2774H518.064ZM531.787 55.1097H572.954V41.3872H531.787V55.1097ZM614.122 96.2774V27.6646H696.458V41.3872H710.18V96.2774H682.735V41.3872H641.567V96.2774H614.122ZM737.625 96.2774V82.5549H723.903V41.3872H737.625V27.6646H806.238V41.3872H819.961V82.5549H806.238V96.2774H737.625ZM751.348 82.5549H792.516V41.3872H751.348V82.5549ZM833.683 96.2774V27.6646H916.019V41.3872H929.741V96.2774H902.296V41.3872H888.573V96.2774H861.128V41.3872H847.406V96.2774H833.683ZM984.632 13.942V0.21946H1012.08V13.942H984.632ZM957.186 96.2774V82.5549H984.632V41.3872H970.909V27.6646H1012.08V82.5549H1039.52V96.2774H957.186ZM1066.97 96.2774V82.5549H1053.24V41.3872H1066.97V27.6646H1149.3V41.3872H1080.69V82.5549H1149.3V96.2774H1066.97ZM1163.02 96.2774V82.5549H1231.64V68.8323H1176.75V55.1097H1163.02V41.3872H1176.75V27.6646H1245.36V41.3872H1190.47V55.1097H1245.36V68.8323H1259.08V82.5549H1245.36V96.2774H1163.02Z"/>
</mask>
<path d="M216.168 96.2774V13.942H188.723V0.21946H271.058V13.942H243.613V96.2774H216.168ZM298.503 96.2774V82.5549H284.781V41.3872H298.503V27.6646H367.116V41.3872H380.839V82.5549H367.116V96.2774H298.503ZM312.226 82.5549H353.393V41.3872H312.226V82.5549ZM394.561 96.2774V0.21946H422.006V55.1097H449.451V41.3872H463.174V27.6646H490.619V41.3872H476.896V55.1097H463.174V68.8323H476.896V82.5549H490.619V96.2774H463.174V82.5549H449.451V68.8323H422.006V96.2774H394.561ZM518.064 96.2774V82.5549H504.342V41.3872H518.064V27.6646H586.677V41.3872H600.4V68.8323H531.787V82.5549H586.677V96.2774H518.064ZM531.787 55.1097H572.954V41.3872H531.787V55.1097ZM614.122 96.2774V27.6646H696.458V41.3872H710.18V96.2774H682.735V41.3872H641.567V96.2774H614.122ZM737.625 96.2774V82.5549H723.903V41.3872H737.625V27.6646H806.238V41.3872H819.961V82.5549H806.238V96.2774H737.625ZM751.348 82.5549H792.516V41.3872H751.348V82.5549ZM833.683 96.2774V27.6646H916.019V41.3872H929.741V96.2774H902.296V41.3872H888.573V96.2774H861.128V41.3872H847.406V96.2774H833.683ZM984.632 13.942V0.21946H1012.08V13.942H984.632ZM957.186 96.2774V82.5549H984.632V41.3872H970.909V27.6646H1012.08V82.5549H1039.52V96.2774H957.186ZM1066.97 96.2774V82.5549H1053.24V41.3872H1066.97V27.6646H1149.3V41.3872H1080.69V82.5549H1149.3V96.2774H1066.97ZM1163.02 96.2774V82.5549H1231.64V68.8323H1176.75V55.1097H1163.02V41.3872H1176.75V27.6646H1245.36V41.3872H1190.47V55.1097H1245.36V68.8323H1259.08V82.5549H1245.36V96.2774H1163.02Z" fill="white"/>
<path d="M216.168 96.2774H212.535V99.9098H216.168V96.2774ZM216.168 13.942H219.8V10.3097H216.168V13.942ZM188.723 13.942H185.09V17.5743H188.723V13.942ZM188.723 0.21946V-3.41286H185.09V0.21946H188.723ZM271.058 0.21946H274.69V-3.41286H271.058V0.21946ZM271.058 13.942V17.5743H274.69V13.942H271.058ZM243.613 13.942V10.3097H239.981V13.942H243.613ZM243.613 96.2774V99.9098H247.245V96.2774H243.613ZM219.8 96.2774V13.942H212.535V96.2774H219.8ZM216.168 10.3097H188.723V17.5743H216.168V10.3097ZM192.355 13.942V0.21946H185.09V13.942H192.355ZM188.723 3.85178H271.058V-3.41286H188.723V3.85178ZM267.426 0.21946V13.942H274.69V0.21946H267.426ZM271.058 10.3097H243.613V17.5743H271.058V10.3097ZM239.981 13.942V96.2774H247.245V13.942H239.981ZM243.613 92.6451H216.168V99.9098H243.613V92.6451ZM298.503 96.2774H294.871V99.9098H298.503V96.2774ZM298.503 82.5549H302.135V78.9225H298.503V82.5549ZM284.781 82.5549H281.148V86.1872H284.781V82.5549ZM284.781 41.3872V37.7548H281.148V41.3872H284.781ZM298.503 41.3872V45.0195H302.135V41.3872H298.503ZM298.503 27.6646V24.0323H294.871V27.6646H298.503ZM367.116 27.6646H370.748V24.0323H367.116V27.6646ZM367.116 41.3872H363.484V45.0195H367.116V41.3872ZM380.839 41.3872H384.471V37.7548H380.839V41.3872ZM380.839 82.5549V86.1872H384.471V82.5549H380.839ZM367.116 82.5549V78.9225H363.484V82.5549H367.116ZM367.116 96.2774V99.9098H370.748V96.2774H367.116ZM312.226 82.5549H308.593V86.1872H312.226V82.5549ZM353.393 82.5549V86.1872H357.026V82.5549H353.393ZM353.393 41.3872H357.026V37.7548H353.393V41.3872ZM312.226 41.3872V37.7548H308.593V41.3872H312.226ZM302.135 96.2774V82.5549H294.871V96.2774H302.135ZM298.503 78.9225H284.781V86.1872H298.503V78.9225ZM288.413 82.5549V41.3872H281.148V82.5549H288.413ZM284.781 45.0195H298.503V37.7548H284.781V45.0195ZM302.135 41.3872V27.6646H294.871V41.3872H302.135ZM298.503 31.2969H367.116V24.0323H298.503V31.2969ZM363.484 27.6646V41.3872H370.748V27.6646H363.484ZM367.116 45.0195H380.839V37.7548H367.116V45.0195ZM377.206 41.3872V82.5549H384.471V41.3872H377.206ZM380.839 78.9225H367.116V86.1872H380.839V78.9225ZM363.484 82.5549V96.2774H370.748V82.5549H363.484ZM367.116 92.6451H298.503V99.9098H367.116V92.6451ZM312.226 86.1872H353.393V78.9225H312.226V86.1872ZM357.026 82.5549V41.3872H349.761V82.5549H357.026ZM353.393 37.7548H312.226V45.0195H353.393V37.7548ZM308.593 41.3872V82.5549H315.858V41.3872H308.593ZM394.561 96.2774H390.929V99.9098H394.561V96.2774ZM394.561 0.21946V-3.41286H390.929V0.21946H394.561ZM422.006 0.21946H425.639V-3.41286H422.006V0.21946ZM422.006 55.1097H418.374V58.742H422.006V55.1097ZM449.451 55.1097V58.742H453.084V55.1097H449.451ZM449.451 41.3872V37.7548H445.819V41.3872H449.451ZM463.174 41.3872V45.0195H466.806V41.3872H463.174ZM463.174 27.6646V24.0323H459.542V27.6646H463.174ZM490.619 27.6646H494.251V24.0323H490.619V27.6646ZM490.619 41.3872V45.0195H494.251V41.3872H490.619ZM476.896 41.3872V37.7548H473.264V41.3872H476.896ZM476.896 55.1097V58.742H480.529V55.1097H476.896ZM463.174 55.1097V51.4774H459.542V55.1097H463.174ZM463.174 68.8323H459.542V72.4646H463.174V68.8323ZM476.896 68.8323H480.529V65.2H476.896V68.8323ZM476.896 82.5549H473.264V86.1872H476.896V82.5549ZM490.619 82.5549H494.251V78.9225H490.619V82.5549ZM490.619 96.2774V99.9098H494.251V96.2774H490.619ZM463.174 96.2774H459.542V99.9098H463.174V96.2774ZM463.174 82.5549H466.806V78.9225H463.174V82.5549ZM449.451 82.5549H445.819V86.1872H449.451V82.5549ZM449.451 68.8323H453.084V65.2H449.451V68.8323ZM422.006 68.8323V65.2H418.374V68.8323H422.006ZM422.006 96.2774V99.9098H425.639V96.2774H422.006ZM398.193 96.2774V0.21946H390.929V96.2774H398.193ZM394.561 3.85178H422.006V-3.41286H394.561V3.85178ZM418.374 0.21946V55.1097H425.639V0.21946H418.374ZM422.006 58.742H449.451V51.4774H422.006V58.742ZM453.084 55.1097V41.3872H445.819V55.1097H453.084ZM449.451 45.0195H463.174V37.7548H449.451V45.0195ZM466.806 41.3872V27.6646H459.542V41.3872H466.806ZM463.174 31.2969H490.619V24.0323H463.174V31.2969ZM486.987 27.6646V41.3872H494.251V27.6646H486.987ZM490.619 37.7548H476.896V45.0195H490.619V37.7548ZM473.264 41.3872V55.1097H480.529V41.3872H473.264ZM476.896 51.4774H463.174V58.742H476.896V51.4774ZM459.542 55.1097V68.8323H466.806V55.1097H459.542ZM463.174 72.4646H476.896V65.2H463.174V72.4646ZM473.264 68.8323V82.5549H480.529V68.8323H473.264ZM476.896 86.1872H490.619V78.9225H476.896V86.1872ZM486.987 82.5549V96.2774H494.251V82.5549H486.987ZM490.619 92.6451H463.174V99.9098H490.619V92.6451ZM466.806 96.2774V82.5549H459.542V96.2774H466.806ZM463.174 78.9225H449.451V86.1872H463.174V78.9225ZM453.084 82.5549V68.8323H445.819V82.5549H453.084ZM449.451 65.2H422.006V72.4646H449.451V65.2ZM418.374 68.8323V96.2774H425.639V68.8323H418.374ZM422.006 92.6451H394.561V99.9098H422.006V92.6451ZM518.064 96.2774H514.432V99.9098H518.064V96.2774ZM518.064 82.5549H521.697V78.9225H518.064V82.5549ZM504.342 82.5549H500.709V86.1872H504.342V82.5549ZM504.342 41.3872V37.7548H500.709V41.3872H504.342ZM518.064 41.3872V45.0195H521.697V41.3872H518.064ZM518.064 27.6646V24.0323H514.432V27.6646H518.064ZM586.677 27.6646H590.309V24.0323H586.677V27.6646ZM586.677 41.3872H583.045V45.0195H586.677V41.3872ZM600.4 41.3872H604.032V37.7548H600.4V41.3872ZM600.4 68.8323V72.4646H604.032V68.8323H600.4ZM531.787 68.8323V65.2H528.154V68.8323H531.787ZM531.787 82.5549H528.154V86.1872H531.787V82.5549ZM586.677 82.5549H590.309V78.9225H586.677V82.5549ZM586.677 96.2774V99.9098H590.309V96.2774H586.677ZM531.787 55.1097H528.154V58.742H531.787V55.1097ZM572.954 55.1097V58.742H576.587V55.1097H572.954ZM572.954 41.3872H576.587V37.7548H572.954V41.3872ZM531.787 41.3872V37.7548H528.154V41.3872H531.787ZM521.697 96.2774V82.5549H514.432V96.2774H521.697ZM518.064 78.9225H504.342V86.1872H518.064V78.9225ZM507.974 82.5549V41.3872H500.709V82.5549H507.974ZM504.342 45.0195H518.064V37.7548H504.342V45.0195ZM521.697 41.3872V27.6646H514.432V41.3872H521.697ZM518.064 31.2969H586.677V24.0323H518.064V31.2969ZM583.045 27.6646V41.3872H590.309V27.6646H583.045ZM586.677 45.0195H600.4V37.7548H586.677V45.0195ZM596.767 41.3872V68.8323H604.032V41.3872H596.767ZM600.4 65.2H531.787V72.4646H600.4V65.2ZM528.154 68.8323V82.5549H535.419V68.8323H528.154ZM531.787 86.1872H586.677V78.9225H531.787V86.1872ZM583.045 82.5549V96.2774H590.309V82.5549H583.045ZM586.677 92.6451H518.064V99.9098H586.677V92.6451ZM531.787 58.742H572.954V51.4774H531.787V58.742ZM576.587 55.1097V41.3872H569.322V55.1097H576.587ZM572.954 37.7548H531.787V45.0195H572.954V37.7548ZM528.154 41.3872V55.1097H535.419V41.3872H528.154ZM614.122 96.2774H610.49V99.9098H614.122V96.2774ZM614.122 27.6646V24.0323H610.49V27.6646H614.122ZM696.458 27.6646H700.09V24.0323H696.458V27.6646ZM696.458 41.3872H692.825V45.0195H696.458V41.3872ZM710.18 41.3872H713.812V37.7548H710.18V41.3872ZM710.18 96.2774V99.9098H713.812V96.2774H710.18ZM682.735 96.2774H679.103V99.9098H682.735V96.2774ZM682.735 41.3872H686.367V37.7548H682.735V41.3872ZM641.567 41.3872V37.7548H637.935V41.3872H641.567ZM641.567 96.2774V99.9098H645.2V96.2774H641.567ZM617.754 96.2774V27.6646H610.49V96.2774H617.754ZM614.122 31.2969H696.458V24.0323H614.122V31.2969ZM692.825 27.6646V41.3872H700.09V27.6646H692.825ZM696.458 45.0195H710.18V37.7548H696.458V45.0195ZM706.548 41.3872V96.2774H713.812V41.3872H706.548ZM710.18 92.6451H682.735V99.9098H710.18V92.6451ZM686.367 96.2774V41.3872H679.103V96.2774H686.367ZM682.735 37.7548H641.567V45.0195H682.735V37.7548ZM637.935 41.3872V96.2774H645.2V41.3872H637.935ZM641.567 92.6451H614.122V99.9098H641.567V92.6451ZM737.625 96.2774H733.993V99.9098H737.625V96.2774ZM737.625 82.5549H741.258V78.9225H737.625V82.5549ZM723.903 82.5549H720.27V86.1872H723.903V82.5549ZM723.903 41.3872V37.7548H720.27V41.3872H723.903ZM737.625 41.3872V45.0195H741.258V41.3872H737.625ZM737.625 27.6646V24.0323H733.993V27.6646H737.625ZM806.238 27.6646H809.87V24.0323H806.238V27.6646ZM806.238 41.3872H802.606V45.0195H806.238V41.3872ZM819.961 41.3872H823.593V37.7548H819.961V41.3872ZM819.961 82.5549V86.1872H823.593V82.5549H819.961ZM806.238 82.5549V78.9225H802.606V82.5549H806.238ZM806.238 96.2774V99.9098H809.87V96.2774H806.238ZM751.348 82.5549H747.716V86.1872H751.348V82.5549ZM792.516 82.5549V86.1872H796.148V82.5549H792.516ZM792.516 41.3872H796.148V37.7548H792.516V41.3872ZM751.348 41.3872V37.7548H747.716V41.3872H751.348ZM741.258 96.2774V82.5549H733.993V96.2774H741.258ZM737.625 78.9225H723.903V86.1872H737.625V78.9225ZM727.535 82.5549V41.3872H720.27V82.5549H727.535ZM723.903 45.0195H737.625V37.7548H723.903V45.0195ZM741.258 41.3872V27.6646H733.993V41.3872H741.258ZM737.625 31.2969H806.238V24.0323H737.625V31.2969ZM802.606 27.6646V41.3872H809.87V27.6646H802.606ZM806.238 45.0195H819.961V37.7548H806.238V45.0195ZM816.328 41.3872V82.5549H823.593V41.3872H816.328ZM819.961 78.9225H806.238V86.1872H819.961V78.9225ZM802.606 82.5549V96.2774H809.87V82.5549H802.606ZM806.238 92.6451H737.625V99.9098H806.238V92.6451ZM751.348 86.1872H792.516V78.9225H751.348V86.1872ZM796.148 82.5549V41.3872H788.883V82.5549H796.148ZM792.516 37.7548H751.348V45.0195H792.516V37.7548ZM747.716 41.3872V82.5549H754.98V41.3872H747.716ZM833.683 96.2774H830.051V99.9098H833.683V96.2774ZM833.683 27.6646V24.0323H830.051V27.6646H833.683ZM916.019 27.6646H919.651V24.0323H916.019V27.6646ZM916.019 41.3872H912.386V45.0195H916.019V41.3872ZM929.741 41.3872H933.374V37.7548H929.741V41.3872ZM929.741 96.2774V99.9098H933.374V96.2774H929.741ZM902.296 96.2774H898.664V99.9098H902.296V96.2774ZM902.296 41.3872H905.928V37.7548H902.296V41.3872ZM888.573 41.3872V37.7548H884.941V41.3872H888.573ZM888.573 96.2774V99.9098H892.206V96.2774H888.573ZM861.128 96.2774H857.496V99.9098H861.128V96.2774ZM861.128 41.3872H864.761V37.7548H861.128V41.3872ZM847.406 41.3872V37.7548H843.773V41.3872H847.406ZM847.406 96.2774V99.9098H851.038V96.2774H847.406ZM837.316 96.2774V27.6646H830.051V96.2774H837.316ZM833.683 31.2969H916.019V24.0323H833.683V31.2969ZM912.386 27.6646V41.3872H919.651V27.6646H912.386ZM916.019 45.0195H929.741V37.7548H916.019V45.0195ZM926.109 41.3872V96.2774H933.374V41.3872H926.109ZM929.741 92.6451H902.296V99.9098H929.741V92.6451ZM905.928 96.2774V41.3872H898.664V96.2774H905.928ZM902.296 37.7548H888.573V45.0195H902.296V37.7548ZM884.941 41.3872V96.2774H892.206V41.3872H884.941ZM888.573 92.6451H861.128V99.9098H888.573V92.6451ZM864.761 96.2774V41.3872H857.496V96.2774H864.761ZM861.128 37.7548H847.406V45.0195H861.128V37.7548ZM843.773 41.3872V96.2774H851.038V41.3872H843.773ZM847.406 92.6451H833.683V99.9098H847.406V92.6451ZM984.632 13.942H980.999V17.5743H984.632V13.942ZM984.632 0.21946V-3.41286H980.999V0.21946H984.632ZM1012.08 0.21946H1015.71V-3.41286H1012.08V0.21946ZM1012.08 13.942V17.5743H1015.71V13.942H1012.08ZM957.186 96.2774H953.554V99.9098H957.186V96.2774ZM957.186 82.5549V78.9225H953.554V82.5549H957.186ZM984.632 82.5549V86.1872H988.264V82.5549H984.632ZM984.632 41.3872H988.264V37.7548H984.632V41.3872ZM970.909 41.3872H967.277V45.0195H970.909V41.3872ZM970.909 27.6646V24.0323H967.277V27.6646H970.909ZM1012.08 27.6646H1015.71V24.0323H1012.08V27.6646ZM1012.08 82.5549H1008.44V86.1872H1012.08V82.5549ZM1039.52 82.5549H1043.15V78.9225H1039.52V82.5549ZM1039.52 96.2774V99.9098H1043.15V96.2774H1039.52ZM988.264 13.942V0.21946H980.999V13.942H988.264ZM984.632 3.85178H1012.08V-3.41286H984.632V3.85178ZM1008.44 0.21946V13.942H1015.71V0.21946H1008.44ZM1012.08 10.3097H984.632V17.5743H1012.08V10.3097ZM960.819 96.2774V82.5549H953.554V96.2774H960.819ZM957.186 86.1872H984.632V78.9225H957.186V86.1872ZM988.264 82.5549V41.3872H980.999V82.5549H988.264ZM984.632 37.7548H970.909V45.0195H984.632V37.7548ZM974.541 41.3872V27.6646H967.277V41.3872H974.541ZM970.909 31.2969H1012.08V24.0323H970.909V31.2969ZM1008.44 27.6646V82.5549H1015.71V27.6646H1008.44ZM1012.08 86.1872H1039.52V78.9225H1012.08V86.1872ZM1035.89 82.5549V96.2774H1043.15V82.5549H1035.89ZM1039.52 92.6451H957.186V99.9098H1039.52V92.6451ZM1066.97 96.2774H1063.33V99.9098H1066.97V96.2774ZM1066.97 82.5549H1070.6V78.9225H1066.97V82.5549ZM1053.24 82.5549H1049.61V86.1872H1053.24V82.5549ZM1053.24 41.3872V37.7548H1049.61V41.3872H1053.24ZM1066.97 41.3872V45.0195H1070.6V41.3872H1066.97ZM1066.97 27.6646V24.0323H1063.33V27.6646H1066.97ZM1149.3 27.6646H1152.93V24.0323H1149.3V27.6646ZM1149.3 41.3872V45.0195H1152.93V41.3872H1149.3ZM1080.69 41.3872V37.7548H1077.06V41.3872H1080.69ZM1080.69 82.5549H1077.06V86.1872H1080.69V82.5549ZM1149.3 82.5549H1152.93V78.9225H1149.3V82.5549ZM1149.3 96.2774V99.9098H1152.93V96.2774H1149.3ZM1070.6 96.2774V82.5549H1063.33V96.2774H1070.6ZM1066.97 78.9225H1053.24V86.1872H1066.97V78.9225ZM1056.88 82.5549V41.3872H1049.61V82.5549H1056.88ZM1053.24 45.0195H1066.97V37.7548H1053.24V45.0195ZM1070.6 41.3872V27.6646H1063.33V41.3872H1070.6ZM1066.97 31.2969H1149.3V24.0323H1066.97V31.2969ZM1145.67 27.6646V41.3872H1152.93V27.6646H1145.67ZM1149.3 37.7548H1080.69V45.0195H1149.3V37.7548ZM1077.06 41.3872V82.5549H1084.32V41.3872H1077.06ZM1080.69 86.1872H1149.3V78.9225H1080.69V86.1872ZM1145.67 82.5549V96.2774H1152.93V82.5549H1145.67ZM1149.3 92.6451H1066.97V99.9098H1149.3V92.6451ZM1163.02 96.2774H1159.39V99.9098H1163.02V96.2774ZM1163.02 82.5549V78.9225H1159.39V82.5549H1163.02ZM1231.64 82.5549V86.1872H1235.27V82.5549H1231.64ZM1231.64 68.8323H1235.27V65.2H1231.64V68.8323ZM1176.75 68.8323H1173.12V72.4646H1176.75V68.8323ZM1176.75 55.1097H1180.38V51.4774H1176.75V55.1097ZM1163.02 55.1097H1159.39V58.742H1163.02V55.1097ZM1163.02 41.3872V37.7548H1159.39V41.3872H1163.02ZM1176.75 41.3872V45.0195H1180.38V41.3872H1176.75ZM1176.75 27.6646V24.0323H1173.12V27.6646H1176.75ZM1245.36 27.6646H1248.99V24.0323H1245.36V27.6646ZM1245.36 41.3872V45.0195H1248.99V41.3872H1245.36ZM1190.47 41.3872V37.7548H1186.84V41.3872H1190.47ZM1190.47 55.1097H1186.84V58.742H1190.47V55.1097ZM1245.36 55.1097H1248.99V51.4774H1245.36V55.1097ZM1245.36 68.8323H1241.73V72.4646H1245.36V68.8323ZM1259.08 68.8323H1262.72V65.2H1259.08V68.8323ZM1259.08 82.5549V86.1872H1262.72V82.5549H1259.08ZM1245.36 82.5549V78.9225H1241.73V82.5549H1245.36ZM1245.36 96.2774V99.9098H1248.99V96.2774H1245.36ZM1166.66 96.2774V82.5549H1159.39V96.2774H1166.66ZM1163.02 86.1872H1231.64V78.9225H1163.02V86.1872ZM1235.27 82.5549V68.8323H1228.01V82.5549H1235.27ZM1231.64 65.2H1176.75V72.4646H1231.64V65.2ZM1180.38 68.8323V55.1097H1173.12V68.8323H1180.38ZM1176.75 51.4774H1163.02V58.742H1176.75V51.4774ZM1166.66 55.1097V41.3872H1159.39V55.1097H1166.66ZM1163.02 45.0195H1176.75V37.7548H1163.02V45.0195ZM1180.38 41.3872V27.6646H1173.12V41.3872H1180.38ZM1176.75 31.2969H1245.36V24.0323H1176.75V31.2969ZM1241.73 27.6646V41.3872H1248.99V27.6646H1241.73ZM1245.36 37.7548H1190.47V45.0195H1245.36V37.7548ZM1186.84 41.3872V55.1097H1194.1V41.3872H1186.84ZM1190.47 58.742H1245.36V51.4774H1190.47V58.742ZM1241.73 55.1097V68.8323H1248.99V55.1097H1241.73ZM1245.36 72.4646H1259.08V65.2H1245.36V72.4646ZM1255.45 68.8323V82.5549H1262.72V68.8323H1255.45ZM1259.08 78.9225H1245.36V86.1872H1259.08V78.9225ZM1241.73 82.5549V96.2774H1248.99V82.5549H1241.73ZM1245.36 92.6451H1163.02V99.9098H1245.36V92.6451Z" fill="#7424FF" mask="url(#path-2-outside-1_81_2030)"/>
</g>
<mask id="path-4-outside-2_81_2030" maskUnits="userSpaceOnUse" x="82" y="21" width="65" height="88" fill="black">
<rect fill="white" x="82" y="21" width="65" height="88"/>
<path d="M143.427 105.427V93.8544H131.854V82.2816H120.282V70.7089H108.709V59.1361H120.282V47.5633H131.854V35.9905H143.427V24.4177H120.282V35.9905H108.709V47.5633H97.1361V59.1361H85.5633V70.7089H97.1361V82.2816H108.709V93.8544H120.282V105.427H143.427Z"/>
</mask>
<path d="M143.427 105.427V93.8544H131.854V82.2816H120.282V70.7089H108.709V59.1361H120.282V47.5633H131.854V35.9905H143.427V24.4177H120.282V35.9905H108.709V47.5633H97.1361V59.1361H85.5633V70.7089H97.1361V82.2816H108.709V93.8544H120.282V105.427H143.427Z" fill="#FF1A1A"/>
<path d="M143.427 105.427H146.49V108.49H143.427V105.427ZM143.427 93.8544V90.7912H146.49V93.8544H143.427ZM131.854 93.8544V96.9177H128.791V93.8544H131.854ZM131.854 82.2816V79.2184H134.918V82.2816H131.854ZM120.282 82.2816V85.3449H117.218V82.2816H120.282ZM120.282 70.7089V67.6456H123.345V70.7089H120.282ZM108.709 70.7089V73.7721H105.646V70.7089H108.709ZM108.709 59.1361H105.646V56.0728H108.709V59.1361ZM120.282 59.1361H123.345V62.1994H120.282V59.1361ZM120.282 47.5633H117.218V44.5H120.282V47.5633ZM131.854 47.5633H134.918V50.6266H131.854V47.5633ZM131.854 35.9905H128.791V32.9272H131.854V35.9905ZM143.427 35.9905H146.49V39.0538H143.427V35.9905ZM143.427 24.4177V21.3544H146.49V24.4177H143.427ZM120.282 24.4177H117.218V21.3544H120.282V24.4177ZM120.282 35.9905H123.345V39.0538H120.282V35.9905ZM108.709 35.9905H105.646V32.9272H108.709V35.9905ZM108.709 47.5633H111.772V50.6266H108.709V47.5633ZM97.1361 47.5633H94.0728V44.5H97.1361V47.5633ZM97.1361 59.1361H100.199V62.1994H97.1361V59.1361ZM85.5633 59.1361H82.5V56.0728H85.5633V59.1361ZM85.5633 70.7089V73.7721H82.5V70.7089H85.5633ZM97.1361 70.7089V67.6456H100.199V70.7089H97.1361ZM97.1361 82.2816V85.3449H94.0728V82.2816H97.1361ZM108.709 82.2816V79.2184H111.772V82.2816H108.709ZM108.709 93.8544V96.9177H105.646V93.8544H108.709ZM120.282 93.8544V90.7912H123.345V93.8544H120.282ZM120.282 105.427V108.49H117.218V105.427H120.282ZM140.364 105.427V93.8544H146.49V105.427H140.364ZM143.427 96.9177H131.854V90.7912H143.427V96.9177ZM128.791 93.8544V82.2816H134.918V93.8544H128.791ZM131.854 85.3449H120.282V79.2184H131.854V85.3449ZM117.218 82.2816V70.7089H123.345V82.2816H117.218ZM120.282 73.7721H108.709V67.6456H120.282V73.7721ZM105.646 70.7089V59.1361H111.772V70.7089H105.646ZM108.709 56.0728H120.282V62.1994H108.709V56.0728ZM117.218 59.1361V47.5633H123.345V59.1361H117.218ZM120.282 44.5H131.854V50.6266H120.282V44.5ZM128.791 47.5633V35.9905H134.918V47.5633H128.791ZM131.854 32.9272H143.427V39.0538H131.854V32.9272ZM140.364 35.9905V24.4177H146.49V35.9905H140.364ZM143.427 27.481H120.282V21.3544H143.427V27.481ZM123.345 24.4177V35.9905H117.218V24.4177H123.345ZM120.282 39.0538H108.709V32.9272H120.282V39.0538ZM111.772 35.9905V47.5633H105.646V35.9905H111.772ZM108.709 50.6266H97.1361V44.5H108.709V50.6266ZM100.199 47.5633V59.1361H94.0728V47.5633H100.199ZM97.1361 62.1994H85.5633V56.0728H97.1361V62.1994ZM88.6266 59.1361V70.7089H82.5V59.1361H88.6266ZM85.5633 67.6456H97.1361V73.7721H85.5633V67.6456ZM100.199 70.7089V82.2816H94.0728V70.7089H100.199ZM97.1361 79.2184H108.709V85.3449H97.1361V79.2184ZM111.772 82.2816V93.8544H105.646V82.2816H111.772ZM108.709 90.7912H120.282V96.9177H108.709V90.7912ZM123.345 93.8544V105.427H117.218V93.8544H123.345ZM120.282 102.364H143.427V108.49H120.282V102.364Z" fill="white" mask="url(#path-4-outside-2_81_2030)"/>
<mask id="path-6-outside-3_81_2030" maskUnits="userSpaceOnUse" x="1297" y="25" width="65" height="88" fill="black">
<rect fill="white" x="1297" y="25" width="65" height="88"/>
<path d="M1300.57 109.427V97.8544H1312.15V86.2816H1323.72V74.7089H1335.29V63.1361H1323.72V51.5633H1312.15V39.9905H1300.57V28.4177H1323.72V39.9905H1335.29V51.5633H1346.86V63.1361H1358.44V74.7089H1346.86V86.2816H1335.29V97.8544H1323.72V109.427H1300.57Z"/>
</mask>
<path d="M1300.57 109.427V97.8544H1312.15V86.2816H1323.72V74.7089H1335.29V63.1361H1323.72V51.5633H1312.15V39.9905H1300.57V28.4177H1323.72V39.9905H1335.29V51.5633H1346.86V63.1361H1358.44V74.7089H1346.86V86.2816H1335.29V97.8544H1323.72V109.427H1300.57Z" fill="#FF1A1A"/>
<path d="M1300.57 109.427H1297.51V112.49H1300.57V109.427ZM1300.57 97.8544V94.7912H1297.51V97.8544H1300.57ZM1312.15 97.8544V100.918H1315.21V97.8544H1312.15ZM1312.15 86.2816V83.2184H1309.08V86.2816H1312.15ZM1323.72 86.2816V89.3449H1326.78V86.2816H1323.72ZM1323.72 74.7089V71.6456H1320.66V74.7089H1323.72ZM1335.29 74.7089V77.7721H1338.35V74.7089H1335.29ZM1335.29 63.1361H1338.35V60.0728H1335.29V63.1361ZM1323.72 63.1361H1320.66V66.1994H1323.72V63.1361ZM1323.72 51.5633H1326.78V48.5H1323.72V51.5633ZM1312.15 51.5633H1309.08V54.6266H1312.15V51.5633ZM1312.15 39.9905H1315.21V36.9272H1312.15V39.9905ZM1300.57 39.9905H1297.51V43.0538H1300.57V39.9905ZM1300.57 28.4177V25.3544H1297.51V28.4177H1300.57ZM1323.72 28.4177H1326.78V25.3544H1323.72V28.4177ZM1323.72 39.9905H1320.66V43.0538H1323.72V39.9905ZM1335.29 39.9905H1338.35V36.9272H1335.29V39.9905ZM1335.29 51.5633H1332.23V54.6266H1335.29V51.5633ZM1346.86 51.5633H1349.93V48.5H1346.86V51.5633ZM1346.86 63.1361H1343.8V66.1994H1346.86V63.1361ZM1358.44 63.1361H1361.5V60.0728H1358.44V63.1361ZM1358.44 74.7089V77.7721H1361.5V74.7089H1358.44ZM1346.86 74.7089V71.6456H1343.8V74.7089H1346.86ZM1346.86 86.2816V89.3449H1349.93V86.2816H1346.86ZM1335.29 86.2816V83.2184H1332.23V86.2816H1335.29ZM1335.29 97.8544V100.918H1338.35V97.8544H1335.29ZM1323.72 97.8544V94.7912H1320.66V97.8544H1323.72ZM1323.72 109.427V112.49H1326.78V109.427H1323.72ZM1303.64 109.427V97.8544H1297.51V109.427H1303.64ZM1300.57 100.918H1312.15V94.7912H1300.57V100.918ZM1315.21 97.8544V86.2816H1309.08V97.8544H1315.21ZM1312.15 89.3449H1323.72V83.2184H1312.15V89.3449ZM1326.78 86.2816V74.7089H1320.66V86.2816H1326.78ZM1323.72 77.7721H1335.29V71.6456H1323.72V77.7721ZM1338.35 74.7089V63.1361H1332.23V74.7089H1338.35ZM1335.29 60.0728H1323.72V66.1994H1335.29V60.0728ZM1326.78 63.1361V51.5633H1320.66V63.1361H1326.78ZM1323.72 48.5H1312.15V54.6266H1323.72V48.5ZM1315.21 51.5633V39.9905H1309.08V51.5633H1315.21ZM1312.15 36.9272H1300.57V43.0538H1312.15V36.9272ZM1303.64 39.9905V28.4177H1297.51V39.9905H1303.64ZM1300.57 31.481H1323.72V25.3544H1300.57V31.481ZM1320.66 28.4177V39.9905H1326.78V28.4177H1320.66ZM1323.72 43.0538H1335.29V36.9272H1323.72V43.0538ZM1332.23 39.9905V51.5633H1338.35V39.9905H1332.23ZM1335.29 54.6266H1346.86V48.5H1335.29V54.6266ZM1343.8 51.5633V63.1361H1349.93V51.5633H1343.8ZM1346.86 66.1994H1358.44V60.0728H1346.86V66.1994ZM1355.37 63.1361V74.7089H1361.5V63.1361H1355.37ZM1358.44 71.6456H1346.86V77.7721H1358.44V71.6456ZM1343.8 74.7089V86.2816H1349.93V74.7089H1343.8ZM1346.86 83.2184H1335.29V89.3449H1346.86V83.2184ZM1332.23 86.2816V97.8544H1338.35V86.2816H1332.23ZM1335.29 94.7912H1323.72V100.918H1335.29V94.7912ZM1320.66 97.8544V109.427H1326.78V97.8544H1320.66ZM1323.72 106.364H1300.57V112.49H1323.72V106.364Z" fill="white" mask="url(#path-6-outside-3_81_2030)"/>
<defs>
<filter id="filter0_d_81_2030" x="181.98" y="0.219482" width="1081.85" height="134.773" filterUnits="userSpaceOnUse" color-interpolation-filters="sRGB">
<feFlood flood-opacity="0" result="BackgroundImageFix"/>
<feColorMatrix in="SourceAlpha" type="matrix" values="0 0 0 0 0 0 0 0 0 0 0 0 0 0 0 0 0 0 127 0" result="hardAlpha"/>
<feOffset dy="18.9722"/>
<feGaussianBlur stdDeviation="2.37152"/>
<feComposite in2="hardAlpha" operator="out"/>
<feColorMatrix type="matrix" values="0 0 0 0 0.716667 0 0 0 0 0 0 0 0 0 1 0 0 0 0.33 0"/>
<feBlend mode="normal" in2="BackgroundImageFix" result="effect1_dropShadow_81_2030"/>
<feBlend mode="normal" in="SourceGraphic" in2="effect1_dropShadow_81_2030" result="shape"/>
</filter>
</defs>
</svg>
